<svg width="104" height="104" viewBox="0 0 104 104" fill="none" xmlns="http://www.w3.org/2000/svg">
<path fill-rule="evenodd" clip-rule="evenodd" d="M0.800781 103.2V0.80014H103.201V103.2H0.800781ZM2.40078 99.0353V2.40014H51.1049L2.40078 99.0353ZM16.0451 101.6H87.9565L52.0008 97.6051L16.0451 101.6ZM92.1095 100.452L52.0008 89.6287L11.8921 100.452L52.0008 95.9952L92.1095 100.452ZM52.0008 80.0808L93.4269 99.15L52.0008 87.9715L10.5746 99.15L52.0008 80.0808ZM92.7661 97.0844L52.0008 70.5546L11.2355 97.0844L52.0008 78.3195L92.7661 97.0844ZM52.0008 61.0456L91.9011 94.6125L52.0008 68.6456L12.1005 94.6125L52.0008 61.0456ZM90.8775 91.6605L52.0008 51.5496L13.1241 91.6605L52.0008 58.9547L90.8775 91.6605ZM52.0008 42.0635L89.7335 88.1812L52.0008 49.2507L14.2681 88.1812L52.0008 42.0635ZM88.4987 84.1454L52.0008 32.5848L15.5028 84.1454L52.0008 39.5368L88.4987 84.1454ZM52.0008 23.1117L87.1954 79.5349L52.0008 29.8155L16.8061 79.535L52.0008 23.1117ZM85.8399 74.3385L52.0008 13.643L18.1617 74.3386L52.0008 20.0885L85.8399 74.3385ZM52.0008 4.17764L84.4439 68.5488L52.0008 10.3573L19.5577 68.5488L52.0008 4.17764ZM101.601 99.0353V2.40014H52.8966L101.601 99.0353Z" fill="url(#paint0_linear_6037_16790)"/>
<defs>
<linearGradient id="paint0_linear_6037_16790" x1="2.40078" y1="103.2" x2="103.201" y2="103.2" gradientUnits="userSpaceOnUse">
<stop stop-color="white" stop-opacity="0.1"/>
<stop offset="0.49336" stop-color="white"/>
<stop offset="1" stop-color="white" stop-opacity="0.1"/>
</linearGradient>
</defs>
</svg>
