<svg width="262" height="248" viewBox="0 0 262 248" fill="none" xmlns="http://www.w3.org/2000/svg">
<path fill-rule="evenodd" clip-rule="evenodd" d="M25.0188 47.3638L90.5188 0H171.481L236.981 47.3638L262 124L236.981 200.636L171.481 248H90.5188L25.0188 200.636L0 124L25.0188 47.3638ZM131 13.091L100.598 3.25953L161.402 3.25953L131 13.091ZM125.701 14.8046L91.7697 3.83181L70.7991 32.5591L125.701 14.8046ZM72.2893 35.5044L127.442 17.6689L106.178 46.895L72.2893 35.5044ZM66.5046 38.442L31.1236 86.9098L66.3575 75.6745L66.5046 38.442ZM66.344 79.1016L30.4986 90.5318L52.4637 120.721L66.2545 101.767L66.344 79.1016ZM69.5474 97.241L69.6232 78.0559L87.6999 72.2917L69.5474 97.241ZM66.2324 107.355L54.4855 123.5L66.1056 139.471L66.2324 107.355ZM69.3629 143.948L69.5253 102.829L92.9649 70.6128L130.703 58.5789L170.695 72.0211L194.082 104.164L194.404 144.777L156.105 195.999L92.4701 175.707L69.3629 143.948ZM66.0837 144.999L52.4637 126.279L30.807 156.044L65.9958 167.265L66.0837 144.999ZM69.2667 168.308L69.3411 149.476L87.2051 174.028L69.2667 168.308ZM65.9823 170.684L29.6754 159.106L65.8324 208.637L65.9823 170.684ZM69.0962 211.463L69.2532 171.727L90.4477 178.485L128.393 230.639L69.0962 211.463ZM176.048 73.8202L194.037 98.5452L193.888 79.8167L176.048 73.8202ZM193.861 76.3671L172.734 69.2661L158.508 49.7127L193.56 38.5352L193.861 76.3671ZM197.172 80.9205L197.348 103.096L211.267 122.226L233.117 93.0024L197.172 80.9205ZM232.713 89.4261L197.145 77.4709L196.85 40.2972L232.713 89.4261ZM167.382 67.467L135.956 56.904L155.226 50.7592L167.382 67.467ZM130.73 55.1476L153.205 47.9811L131.318 17.8993L109.427 47.9871L130.73 55.1476ZM104.167 49.6594L90.9425 67.8349L69.6367 74.6289L69.781 38.1017L104.167 49.6594ZM107.415 50.7514L125.478 56.8225L96.2075 66.1561L107.415 50.7514ZM159.402 197.05L194.447 150.18L194.91 208.373L159.402 197.05ZM197.688 145.846L198.165 205.901L233.314 157.751L233.154 157.866L211.231 127.734L197.688 145.846ZM197.393 108.715L197.645 140.443L209.217 124.967L197.393 108.715ZM135.389 17.9377L191.012 35.9252L156.487 46.9345L135.389 17.9377ZM28.2937 93.0587V153.941L50.442 123.5L28.2937 93.0587ZM134.504 230.349L193.382 211.308L157.335 199.814L134.504 230.349ZM154.039 198.763L131.336 229.126L95.7127 180.164L154.039 198.763ZM213.28 124.993L233.706 153.068V97.6748L213.28 124.993ZM65.5 34.2727L84.2894 8.53357L35.0983 44.1042L65.5 34.2727ZM35.0983 203.896L84.2894 239.466L65.5 213.727L35.0983 203.896ZM62.225 209.241L28.2937 162.759V198.268L62.225 209.241ZM25.0187 158.273V190.088L6.22942 132.534L25.0187 158.273ZM25.0187 95.2729L4.04812 124L25.0187 152.727V95.2729ZM25.0187 89.7274L6.22942 115.466L25.0187 57.9122V89.7274ZM28.2937 85.241V49.732L62.225 38.7591L28.2937 85.241ZM70.7991 215.441L91.7697 244.168L125.701 233.195L70.7991 215.441ZM131 234.909L100.598 244.74H161.402L131 234.909ZM177.71 239.467L226.902 203.896L196.5 213.727L177.71 239.467ZM191.201 215.441L136.299 233.195L170.23 244.168L191.201 215.441ZM199.775 209.241L233.706 198.268V162.759L199.775 209.241ZM236.981 158.273V190.088L255.771 132.533L236.981 158.273ZM255.771 115.467L236.981 57.9119V89.7274L255.771 115.467ZM236.981 152.727L257.952 124L236.981 95.2728V152.727ZM233.706 85.241V49.732L199.775 38.7591L233.706 85.241ZM196.5 34.2727L226.902 44.1043L177.71 8.53337L196.5 34.2727ZM191.201 32.5591L136.299 14.8046L170.23 3.83181L191.201 32.5591Z" fill="#D9D9D9"/>
</svg>
