<svg width="71" height="60" viewBox="0 0 71 60" fill="none" xmlns="http://www.w3.org/2000/svg">
<g filter="url(#filter0_bd_1062_5173)">
<path d="M13.1145 51.048L47.5305 0.648H57.8985L23.4825 51.048H13.1145ZM17.7225 27.936C15.2745 27.936 13.0665 27.384 11.0985 26.28C9.13047 25.176 7.59447 23.592 6.49047 21.528C5.38647 19.416 4.83447 16.896 4.83447 13.968C4.83447 11.04 5.38647 8.544 6.49047 6.48C7.59447 4.416 9.13047 2.832 11.0985 1.728C13.0665 0.576 15.2745 0 17.7225 0C20.2185 0 22.4265 0.576 24.3465 1.728C26.3145 2.832 27.8505 4.416 28.9545 6.48C30.1065 8.544 30.6825 11.04 30.6825 13.968C30.6825 16.848 30.1065 19.344 28.9545 21.456C27.8505 23.568 26.3145 25.176 24.3465 26.28C22.4265 27.384 20.2185 27.936 17.7225 27.936ZM17.7945 21.096C18.9945 21.096 19.9785 20.544 20.7465 19.44C21.5625 18.336 21.9705 16.512 21.9705 13.968C21.9705 11.424 21.5625 9.6 20.7465 8.496C19.9785 7.392 18.9945 6.84 17.7945 6.84C16.5945 6.84 15.5625 7.392 14.6985 8.496C13.8825 9.6 13.4745 11.424 13.4745 13.968C13.4745 16.512 13.8825 18.336 14.6985 19.44C15.5625 20.544 16.5945 21.096 17.7945 21.096ZM53.2905 51.696C50.7945 51.696 48.5625 51.144 46.5945 50.04C44.6745 48.936 43.1625 47.352 42.0585 45.288C40.9545 43.176 40.4025 40.656 40.4025 37.728C40.4025 34.8 40.9545 32.304 42.0585 30.24C43.1625 28.176 44.6745 26.592 46.5945 25.488C48.5625 24.336 50.7945 23.76 53.2905 23.76C55.7865 23.76 57.9945 24.336 59.9145 25.488C61.8825 26.592 63.4185 28.176 64.5225 30.24C65.6745 32.304 66.2505 34.8 66.2505 37.728C66.2505 40.656 65.6745 43.176 64.5225 45.288C63.4185 47.352 61.8825 48.936 59.9145 50.04C57.9945 51.144 55.7865 51.696 53.2905 51.696ZM53.2905 44.856C54.4905 44.856 55.4985 44.304 56.3145 43.2C57.1305 42.096 57.5385 40.272 57.5385 37.728C57.5385 35.184 57.1305 33.36 56.3145 32.256C55.4985 31.152 54.4905 30.6 53.2905 30.6C52.1385 30.6 51.1305 31.152 50.2665 32.256C49.4505 33.36 49.0425 35.184 49.0425 37.728C49.0425 40.272 49.4505 42.096 50.2665 43.2C51.1305 44.304 52.1385 44.856 53.2905 44.856Z" fill="url(#paint0_linear_1062_5173)" fill-opacity="0.7" shape-rendering="crispEdges"/>
</g>
<defs>
<filter id="filter0_bd_1062_5173" x="-115.166" y="-120" width="301.416" height="291.696" filterUnits="userSpaceOnUse" color-interpolation-filters="sRGB">
<feFlood flood-opacity="0" result="BackgroundImageFix"/>
<feGaussianBlur in="BackgroundImageFix" stdDeviation="60"/>
<feComposite in2="SourceAlpha" operator="in" result="effect1_backgroundBlur_1062_5173"/>
<feColorMatrix in="SourceAlpha" type="matrix" values="0 0 0 0 0 0 0 0 0 0 0 0 0 0 0 0 0 0 127 0" result="hardAlpha"/>
<feOffset dy="4"/>
<feGaussianBlur stdDeviation="2"/>
<feComposite in2="hardAlpha" operator="out"/>
<feColorMatrix type="matrix" values="0 0 0 0 0 0 0 0 0 0 0 0 0 0 0 0 0 0 0.25 0"/>
<feBlend mode="normal" in2="effect1_backgroundBlur_1062_5173" result="effect2_dropShadow_1062_5173"/>
<feBlend mode="normal" in="SourceGraphic" in2="effect2_dropShadow_1062_5173" result="shape"/>
</filter>
<linearGradient id="paint0_linear_1062_5173" x1="66.2505" y1="8.09904" x2="-2.01005" y2="32.7195" gradientUnits="userSpaceOnUse">
<stop stop-color="white"/>
<stop offset="1" stop-color="#999999"/>
</linearGradient>
</defs>
</svg>
