<svg width="40" height="40" viewBox="0 0 40 40" fill="none" xmlns="http://www.w3.org/2000/svg">
<g id="search">
<path id="Vector" d="M35.0003 34.9999L27.762 27.7615M27.762 27.7615C29.0002 26.5234 29.9823 25.0535 30.6524 23.4358C31.3225 21.818 31.6674 20.0842 31.6674 18.3332C31.6674 16.5822 31.3225 14.8483 30.6524 13.2306C29.9823 11.6129 29.0002 10.143 27.762 8.90486C26.5239 7.66671 25.054 6.68456 23.4363 6.01448C21.8185 5.3444 20.0847 4.99951 18.3337 4.99951C16.5827 4.99951 14.8488 5.3444 13.2311 6.01448C11.6134 6.68456 10.1435 7.66671 8.90534 8.90486C6.40479 11.4054 5 14.7969 5 18.3332C5 21.8695 6.40479 25.261 8.90534 27.7615C11.4059 30.2621 14.7974 31.6669 18.3337 31.6669C21.87 31.6669 25.2615 30.2621 27.762 27.7615Z" stroke="white" stroke-width="1.5" stroke-linecap="round" stroke-linejoin="round"/>
</g>
</svg>
