<svg width="191" height="56" viewBox="0 0 191 56" fill="none" xmlns="http://www.w3.org/2000/svg">
<g clip-path="url(#clip0_792_2880)">
<path d="M83.7185 4.08716H86.2251V23.6386H83.9191V8.59903L79.6077 18.4249H77.3017L72.89 8.59903V23.5383H70.584V4.08716H73.0906L78.4046 16.1188L83.7185 4.08716Z" fill="white"/>
<path d="M101.065 23.5382H98.959L98.7584 22.335C97.9563 23.0369 95.9511 23.839 94.1463 23.839C91.0381 23.839 89.835 22.0342 89.835 19.3271C89.835 16.4195 91.2387 14.9155 94.3468 14.9155C96.1516 14.9155 97.8561 15.4168 98.5579 15.7176V13.5118C98.5579 11.6068 97.9563 10.8047 95.7505 10.8047C94.4471 10.8047 93.1437 11.0052 91.8402 11.306L91.4392 9.30072C92.7426 8.89967 94.4471 8.59888 95.9511 8.59888C99.36 8.59888 100.964 10.1028 100.964 13.3113V23.5382H101.065ZM98.5579 17.4221C97.7558 17.1213 96.1516 16.8205 94.6476 16.8205C92.6424 16.8205 92.141 17.8232 92.141 19.4274C92.141 21.2321 92.7426 22.0342 94.4471 22.0342C96.2518 22.0342 97.6555 21.3324 98.4577 20.8311L98.5579 17.4221Z" fill="white"/>
<path d="M112.194 11.1056C110.489 11.4064 108.885 12.008 107.582 12.6096V23.6386H105.075V9.00009H107.08L107.381 10.7046C108.284 9.8022 109.888 9.00009 111.793 8.79956L112.194 11.1056Z" fill="white"/>
<path d="M114.801 23.5384V2.88403H117.307V15.8181L122.421 9.10039H125.328L119.714 16.3194L125.529 23.6387H122.621L117.307 16.7204V23.6387H114.801V23.5384Z" fill="white"/>
<path d="M129.44 17.4222C129.54 20.5304 130.342 21.934 133.35 21.934C134.854 21.934 136.558 21.533 137.661 21.1319L138.062 23.037C136.859 23.5383 134.954 23.9393 133.35 23.9393C128.036 23.9393 127.033 20.3298 127.033 16.219C127.033 12.0079 128.437 8.69922 132.849 8.69922C136.859 8.69922 138.463 11.5066 138.463 15.0158V17.4222H129.44ZM129.44 15.5172H136.057V15.0158C136.057 12.3087 135.255 10.7045 132.748 10.7045C130.041 10.6042 129.44 12.6095 129.44 15.5172Z" fill="white"/>
<path d="M149.492 23.4381C148.891 23.6387 147.387 23.8392 146.484 23.8392C143.978 23.8392 142.875 22.4355 142.875 20.2297V11.0054H140.368V9.00013H142.875V5.4909L145.381 5.08984V9.00013H149.592L149.392 11.0054H145.482V20.1294C145.482 21.5331 145.782 21.9342 147.186 21.9342C147.788 21.9342 148.59 21.8339 149.392 21.6334L149.492 23.4381Z" fill="white"/>
<path d="M153.704 3.18481C154.706 3.18481 155.408 3.88666 155.408 4.78904C155.408 5.69141 154.706 6.39326 153.704 6.39326C152.701 6.39326 151.999 5.69141 151.999 4.78904C152.099 3.7864 152.801 3.18481 153.704 3.18481ZM152.5 9.00012H155.007V23.6386H152.5V9.00012Z" fill="white"/>
<path d="M168.041 23.5385V13.0108C168.041 11.7074 167.439 11.0055 166.035 11.0055C164.531 11.0055 162.927 11.5069 161.925 12.0082V23.6388H159.418V9.00025H161.423L161.624 10.3037C162.827 9.50157 164.632 8.69946 166.637 8.69946C169.144 8.69946 170.547 10.1032 170.547 12.71V23.5385H168.041Z" fill="white"/>
<path d="M181.476 8.99981H186.088V10.7043L184.183 11.1053C184.584 11.8072 184.785 12.6093 184.785 13.6119C184.785 16.6199 182.679 18.4246 179.37 18.4246C178.769 18.4246 178.267 18.4246 177.866 18.3243C177.566 18.6251 177.165 19.0262 177.165 19.728C177.165 20.4299 177.566 20.7307 178.468 20.7307H181.777C184.384 20.7307 185.988 22.3349 185.988 24.641C185.988 27.7491 183.18 29.3534 179.27 29.3534C175.46 29.3534 173.354 28.1502 173.354 25.4431C173.354 23.6383 174.558 22.8362 175.661 22.3349C175.059 21.9338 174.658 21.232 174.658 20.4299C174.658 19.1265 175.56 18.4246 176.362 18.0236C174.758 17.2214 173.856 15.8178 173.856 13.8125C173.856 10.7043 175.661 8.99981 179.27 8.99981C180.172 8.79928 180.874 8.89954 181.476 8.99981ZM176.864 22.6357C176.162 23.137 175.56 23.8389 175.56 25.042C175.56 26.7465 176.964 27.3481 179.17 27.3481C181.777 27.3481 183.381 26.6462 183.381 24.7412C183.381 23.6383 182.779 22.736 181.175 22.736H177.967C177.666 22.736 177.064 22.736 176.864 22.6357ZM179.27 10.5038C177.165 10.5038 176.162 11.3059 176.162 13.5117C176.162 15.7175 177.265 16.5196 179.27 16.5196C181.275 16.5196 182.378 15.517 182.378 13.5117C182.479 11.4061 181.376 10.5038 179.27 10.5038Z" fill="white"/>
<path d="M73.0906 45.697V53.0162H70.584V33.3645H76.3993C80.9112 33.3645 82.6156 35.9714 82.6156 39.4806C82.6156 43.0901 80.9112 45.5967 76.3993 45.5967L73.0906 45.697ZM73.0906 43.5914H76.299C79.2067 43.5914 80.109 41.8869 80.109 39.4806C80.109 37.0743 79.3069 35.3698 76.299 35.3698H73.0906V43.5914Z" fill="white"/>
<path d="M95.1488 52.9156H93.0433L92.943 51.7125C92.1409 52.4143 90.1356 53.2164 88.3309 53.2164C85.2227 53.2164 84.0195 51.4117 84.0195 48.7046C84.0195 45.7969 85.4232 44.2929 88.5314 44.2929C90.3362 44.2929 92.0406 44.7943 92.7425 45.0951V42.8892C92.7425 40.9842 92.1409 40.1821 89.9351 40.1821C88.6317 40.1821 87.3282 40.3827 86.0248 40.6834L85.6238 38.6782C86.9272 38.2771 88.6317 37.9763 90.1356 37.9763C93.5446 37.9763 95.1488 39.4803 95.1488 42.6887V52.9156ZM92.6422 46.7995C91.8401 46.4987 90.2359 46.198 88.7319 46.198C86.7267 46.198 86.2253 47.2006 86.2253 48.8048C86.2253 50.6096 86.8269 51.4117 88.5314 51.4117C90.3362 51.4117 91.7398 50.7098 92.542 50.2085L92.6422 46.7995Z" fill="white"/>
<path d="M106.278 40.4831C104.573 40.7839 102.969 41.3854 101.666 41.987V52.9158H99.1592V38.3775H101.164L101.465 40.082C102.368 39.1796 103.972 38.3775 105.877 38.177L106.278 40.4831Z" fill="white"/>
<path d="M116.405 52.815C115.804 53.0155 114.3 53.2161 113.397 53.2161C110.891 53.2161 109.788 51.8124 109.788 49.6066V40.3823H107.281V38.377H109.788V34.7675L112.294 34.3665V38.2767H116.506L116.305 40.282H112.395V49.406C112.395 50.8097 112.696 51.2108 114.099 51.2108C114.701 51.2108 115.503 51.1105 116.305 50.91L116.405 52.815Z" fill="white"/>
<path d="M128.036 52.9157V42.388C128.036 41.0846 127.434 40.3827 126.03 40.3827C124.527 40.3827 122.922 40.884 121.92 41.3854V53.016H119.413V38.3775H121.418L121.619 39.6809C122.822 38.8788 124.627 38.0767 126.632 38.0767C129.139 38.0767 130.542 39.4804 130.542 42.0872V52.9157H128.036Z" fill="white"/>
<path d="M136.357 46.7996C136.458 49.9078 137.26 51.3115 140.268 51.3115C141.772 51.3115 143.476 50.9104 144.579 50.5094L144.98 52.4144C143.777 52.9157 141.872 53.3168 140.268 53.3168C134.954 53.3168 133.951 49.7073 133.951 45.5964C133.951 41.3854 135.355 38.0767 139.766 38.0767C143.777 38.0767 145.381 40.884 145.381 44.3933V46.7996H136.357ZM136.357 44.8946H142.975V44.3933C142.975 41.6862 142.173 40.0819 139.666 40.0819C136.959 39.9817 136.357 41.9869 136.357 44.8946Z" fill="white"/>
<path d="M155.909 40.4828C154.204 40.7836 152.6 41.3852 151.297 41.9868V52.9155H148.79V38.3773H150.795L151.096 40.0818C151.998 39.1794 153.603 38.3773 155.508 38.1768L155.909 40.4828Z" fill="white"/>
<path d="M53.6394 0.97876H5.5128C3.80831 0.97876 2.50488 2.28219 2.50488 3.98668V51.9128C2.50488 53.517 3.80831 54.9207 5.5128 54.9207H31.3809V33.9656H24.3624V25.8442H31.3809V19.8284C31.3809 12.9102 35.6922 9.10013 41.9086 9.10013C44.9165 9.10013 47.5233 9.30066 48.2252 9.40092V16.7202H43.9138C40.5049 16.7202 39.9033 18.3244 39.9033 20.7307V25.9445H48.0247L46.9218 34.0658H39.9033V54.9207H53.7397C55.4442 54.9207 56.7476 53.6173 56.7476 51.9128V3.98668C56.5471 2.28219 55.2437 0.97876 53.6394 0.97876Z" fill="white"/>
</g>
<defs>
<clipPath id="clip0_792_2880">
<rect width="190" height="54.8443" fill="white" transform="translate(0.5 0.577881)"/>
</clipPath>
</defs>
</svg>
