<svg width="171" height="64" viewBox="0 0 171 64" fill="none" xmlns="http://www.w3.org/2000/svg">
<g clip-path="url(#clip0_792_2902)">
<path d="M59.3867 12.5581V42.9076L63.3901 42.9187V28.4673H73.0425V24.645H63.3901V16.376H75.9615V12.5559L59.3867 12.5581ZM83.166 18.7182C84.6083 18.7182 85.7772 17.5782 85.7772 16.1715C85.7772 14.7648 84.6094 13.6248 83.166 13.6248C81.7249 13.6248 80.5549 14.7648 80.5549 16.1715C80.5549 17.5782 81.7249 18.7182 83.166 18.7182ZM81.1305 22.5394V42.912H85.1339V22.5394H81.1305Z" fill="white"/>
<path fill-rule="evenodd" clip-rule="evenodd" d="M99.9819 21.9451C94.6651 21.9451 90.9551 26.3307 90.9551 31.5375C90.9551 36.7453 94.6663 41.131 99.9819 41.131C102.415 41.131 104.421 40.2121 105.882 38.7154V41.4276C105.882 44.8033 103.163 47.6255 99.6152 47.6255C98.3397 47.6255 97.073 47.1433 96.063 46.4644L94.0574 49.8534C95.7225 50.8982 97.6494 51.4502 99.6152 51.4456C105.286 51.4456 109.884 46.9611 109.884 41.4276V22.5384H105.881V24.3607C104.421 22.864 102.416 21.9451 99.9819 21.9451ZM94.9585 31.5375C94.9585 28.3052 97.4919 25.7651 100.415 25.7651C103.339 25.7651 105.874 28.3052 105.874 31.5375C105.874 34.7697 103.339 37.3109 100.415 37.3109C97.493 37.3109 94.9585 34.7697 94.9585 31.5375Z" fill="white"/>
<path d="M124.31 25.7651C121.942 25.7651 120.023 27.7218 120.023 30.0319V42.9121H116.02V22.5395H120.023V24.4062C121.195 22.9262 122.923 21.9451 125.179 21.9451C127.984 21.9451 130.138 23.304 131.384 25.384C132.771 23.3751 135.033 21.9451 137.754 21.9451C142.311 21.9451 145.147 25.5307 145.175 29.9674V42.9121H141.171V30.0308C141.171 27.7218 139.252 25.764 136.884 25.764C134.518 25.764 132.599 27.7218 132.599 30.0308V42.9132H128.595V30.0308C128.595 27.7218 126.676 25.764 124.309 25.764" fill="white"/>
<path fill-rule="evenodd" clip-rule="evenodd" d="M166.496 24.8485C164.715 23.0562 162.277 21.9451 159.447 21.9451C153.491 21.9451 149.265 26.864 149.265 32.7264C149.265 38.5887 153.491 43.5077 159.447 43.5077C162.276 43.5077 164.715 42.3977 166.496 40.6043V42.9132H170.499V22.5395H166.496V24.8485ZM153.268 32.7264C153.268 28.8374 156.321 25.7651 159.882 25.7651C163.443 25.7651 166.496 28.8374 166.496 32.7264C166.496 36.6153 163.443 39.6876 159.882 39.6876C156.32 39.6876 153.268 36.6164 153.268 32.7264Z" fill="white"/>
</g>
<g clip-path="url(#clip1_792_2902)">
<path d="M21.6113 32.0001C21.6113 29.2005 22.7234 26.5156 24.703 24.536C26.6826 22.5565 29.3675 21.4443 32.1671 21.4443C34.9666 21.4443 37.6515 22.5565 39.6311 24.536C41.6107 26.5156 42.7228 29.2005 42.7228 32.0001C42.7228 34.7996 41.6107 37.4845 39.6311 39.4641C37.6515 41.4437 34.9666 42.5558 32.1671 42.5558C29.3675 42.5558 26.6826 41.4437 24.703 39.4641C22.7234 37.4845 21.6113 34.7996 21.6113 32.0001Z" fill="white"/>
<path d="M0.5 53.1114C0.5 50.3119 1.61212 47.627 3.59171 45.6474C5.57129 43.6678 8.25619 42.5557 11.0558 42.5557H21.6115V53.1114C21.6115 55.911 20.4994 58.5959 18.5198 60.5755C16.5402 62.555 13.8553 63.6672 11.0558 63.6672C8.25619 63.6672 5.57129 62.555 3.59171 60.5755C1.61212 58.5959 0.5 55.911 0.5 53.1114Z" fill="white"/>
<path d="M21.6113 0.332764V21.4443H32.1671C34.9666 21.4443 37.6515 20.3321 39.6311 18.3526C41.6107 16.373 42.7228 13.6881 42.7228 10.8885C42.7228 8.08895 41.6107 5.40406 39.6311 3.42447C37.6515 1.44488 34.9666 0.332764 32.1671 0.332764L21.6113 0.332764Z" fill="white"/>
<path d="M0.5 10.8885C0.5 13.6881 1.61212 16.373 3.59171 18.3526C5.57129 20.3321 8.25619 21.4443 11.0558 21.4443H21.6115V0.332764H11.0558C8.25619 0.332764 5.57129 1.44488 3.59171 3.42447C1.61212 5.40406 0.5 8.08895 0.5 10.8885Z" fill="white"/>
<path d="M0.5 32.0001C0.5 34.7996 1.61212 37.4845 3.59171 39.4641C5.57129 41.4437 8.25619 42.5558 11.0558 42.5558H21.6115V21.4443H11.0558C8.25619 21.4443 5.57129 22.5565 3.59171 24.536C1.61212 26.5156 0.5 29.2005 0.5 32.0001Z" fill="white"/>
</g>
<defs>
<clipPath id="clip0_792_2902">
<rect width="111.113" height="38.8896" fill="white" transform="translate(59.3867 12.5559)"/>
</clipPath>
<clipPath id="clip1_792_2902">
<rect width="42.223" height="63.3345" fill="white" transform="translate(0.5 0.332764)"/>
</clipPath>
</defs>
</svg>
