<svg width="172" height="52" viewBox="0 0 172 52" fill="none" xmlns="http://www.w3.org/2000/svg">
<g clip-path="url(#clip0_792_2915)">
<path d="M94.065 6.79815C94.065 4.89876 95.6021 3.30774 97.4471 3.30774C99.292 3.30774 100.931 4.89876 100.931 6.79815C100.931 8.64648 99.3429 10.1864 97.4471 10.1864C95.5512 10.1864 94.065 8.64648 94.065 6.79815ZM121.121 14.1699C122.76 14.1699 123.837 15.095 123.837 17.0965C123.837 18.226 123.376 20.1254 122.401 22.7947C121.068 26.3892 119.686 30.4964 118.2 35.1673C117.533 32.9085 116.253 29.314 114.663 25.2068L113.279 21.408C112.51 19.3024 112.1 17.6603 112.1 16.5819C112.1 15.093 112.818 14.272 114.202 14.1168V13.449H102.57V14.1168C104.158 14.27 105.44 15.7589 107.13 20.2786L114.51 39.8402C115.484 42.4074 115.381 44.7173 114.202 46.823C113.332 48.6713 112.153 49.5965 110.718 49.5965C108.924 49.5965 108.003 48.8265 108.003 47.2355C108.003 46.6187 109.181 45.3871 109.181 44.2066C109.181 42.5646 107.901 41.7946 106.466 41.7946C104.468 41.7946 103.135 43.1813 103.135 45.285C103.186 48.3649 105.799 50.9832 109.285 50.9832C111.079 51.1364 112.514 50.2132 113.487 49.3922C114.102 48.9306 114.871 47.3376 115.281 46.5676C115.486 46.2082 115.741 45.5914 116.049 44.6682C116.408 43.7961 116.614 43.0772 116.767 42.6137C116.92 42.1521 117.227 41.3821 117.586 40.2016L118.406 37.5833C120.609 30.7027 122.711 24.6961 124.709 19.6147C125.887 16.688 127.424 14.9418 128.193 14.5823C128.552 14.3761 129.012 14.2229 129.526 14.1207V13.4529H121.121V14.1718V14.1699ZM40.2136 38.4554C38.7275 38.1981 37.4472 36.8644 37.4472 34.0399V0L28.9912 1.84833V2.56723C30.4264 2.41402 31.8615 3.69665 31.8615 6.41709V34.0399C31.8615 36.7092 30.4264 38.2492 28.9912 38.4554C28.852 38.479 28.7148 38.4967 28.5854 38.5065C27.8541 38.5615 27.1208 38.4201 26.4484 38.1274C25.3151 37.6305 24.3603 36.7485 23.5624 35.4286L19.6471 29.1568C17.9571 26.4501 14.6927 25.1793 11.6224 26.0318L16.0298 21.1546C19.3608 17.458 22.435 15.097 25.3563 14.1207V13.4529H15.671V14.1207C18.1825 15.097 18.0276 17.2517 15.1593 20.6419L8.95797 27.8801V0L0.5 1.84833V2.56723C1.93515 2.56723 3.3703 4.00504 3.3703 6.5212V34.0399C3.3703 37.0687 1.98612 38.2492 0.5 38.4554V39.1233H11.7224V38.4554C9.87748 38.1981 8.95601 36.7603 8.95601 34.0399V28.9565L11.3636 26.2871L17.2062 35.8882C18.5903 38.1981 19.8706 39.1233 21.9214 39.1233H41.4096V38.5988C41.4096 38.5988 40.8645 38.5635 40.2156 38.4554H40.2136ZM66.2286 38.534V39.2018C66.2286 39.2018 60.4763 41.2839 58.7372 37.7601C58.3079 36.9548 58.0726 35.9412 58.0118 34.7764C56.4238 38.0626 52.9378 39.8088 49.6578 39.8088C45.5072 39.8088 42.535 37.8583 42.535 33.596C42.535 32.5176 42.8428 31.4903 43.4564 30.5671C44.6857 28.7188 46.1209 27.7426 48.7853 26.7173C50.1185 26.2046 51.2458 25.8452 52.1163 25.5878C52.9868 25.3305 54.1142 25.0752 55.4474 24.8179L58.0099 24.2011V21.1212C58.0099 15.9868 55.8062 13.6768 52.732 13.6768C50.3224 13.6768 48.9402 15.2679 48.9402 17.1162C48.9402 18.1435 49.6578 19.6323 49.6578 20.7107C49.6578 22.1485 48.3775 23.1758 46.5836 23.1758C44.8916 23.1758 43.8682 21.789 43.8682 19.9407C43.8682 18.0924 44.7896 16.3973 46.6875 14.9614C48.5834 13.5236 50.6851 12.8047 53.0417 12.8047C60.2371 12.8047 63.3779 16.2225 63.4897 23.7317V35.0377V35.1988C63.5034 35.9353 63.7093 38.9386 66.2286 38.536V38.534ZM58.0118 24.9691C57.704 25.1223 56.9864 25.3796 55.8081 25.8412L53.4515 26.7133C52.8614 26.9883 52.4261 27.226 51.5556 27.6896C50.6851 28.1511 50.1205 28.5617 49.7617 28.9722C49.0951 29.7422 48.3265 31.0778 48.3265 32.5156C48.3265 35.5445 49.9656 37.1885 52.4771 37.1885C53.7593 37.1885 54.9886 36.6758 56.1669 35.6996C57.3962 34.7234 58.0118 33.3386 58.0118 31.6435V24.9691ZM152.894 26.291C152.894 29.9936 151.61 33.1815 149.044 35.8568C146.528 38.479 143.448 39.8166 139.907 39.8166C136.367 39.8166 133.236 38.479 130.72 35.8568C128.205 33.1835 126.922 29.9936 126.922 26.291C126.922 22.5885 128.207 19.4006 130.72 16.7783C133.236 14.105 136.316 12.7674 139.907 12.7674C143.45 12.7674 146.528 14.105 149.044 16.7783C151.61 19.4006 152.894 22.5885 152.894 26.291ZM144.515 17.2046C143.501 15.2168 142.164 14.0559 140.603 13.7397C137.433 13.0994 134.632 16.3639 133.587 21.5573C133.151 23.7258 133.038 26.1143 133.265 28.6265C133.543 31.1485 134.185 33.429 135.2 35.4168C136.214 37.4046 137.551 38.5654 139.111 38.8817C142.282 39.522 145.166 36.116 146.219 30.8735C147.101 26.4875 146.654 21.1526 144.515 17.2065V17.2046ZM100.417 34.0399V13.451H82.3799V14.0677C84.7875 14.4272 85.9365 16.248 84.8405 19.2022C79.2038 34.5525 79.5626 33.8631 79.2038 35.0966C78.845 33.9161 78.0255 31.011 76.6923 27.3655C75.3591 23.7199 74.4886 21.3078 74.1298 20.2295C72.7456 15.9691 73.2064 14.3761 75.463 14.1207V13.4529H63.7779V14.1207C65.5209 14.4802 67.058 16.4817 68.3382 20.0763L70.1322 24.7491C72.1045 29.7952 74.42 36.7642 75.1944 39.1252H79.0803C80.3311 35.4816 85.3483 20.8914 86.0208 19.4104C86.7442 17.7212 87.5637 16.4425 88.4833 15.5586C88.4833 15.5586 89.8694 14.1031 91.9633 14.1031C91.9633 14.1031 94.7807 13.9793 94.7807 16.8274V19.1374C94.7807 19.1609 94.7807 19.1825 94.7807 19.2061V34.0438C94.7807 36.9194 93.3965 38.2531 91.9613 38.4594V39.1272H103.133V38.4594C101.647 38.2531 100.417 36.9194 100.417 34.0438V34.0399Z" fill="white"/>
<path d="M170.909 0H151.303V13.451H170.909L167.033 6.72548L170.909 0Z" fill="white"/>
</g>
<defs>
<clipPath id="clip0_792_2915">
<rect width="171" height="51" fill="white" transform="translate(0.5 0.5)"/>
</clipPath>
</defs>
</svg>
