<svg width="162" height="40" viewBox="0 0 162 40" fill="none" xmlns="http://www.w3.org/2000/svg">
<path d="M74.8021 13.2754L70.3686 25.7931H66.1298L63.7725 18.9928L61.3287 25.7931H57.0899L52.6348 13.2754H56.7871L59.339 20.8553L61.9991 13.2754H65.7405L68.3141 20.9203L70.9525 13.2754H74.8021Z" fill="white"/>
<path d="M89.0759 20.6388H79.9927C80.1874 21.2885 80.5334 21.7866 81.0741 22.1331C81.6147 22.4796 82.2635 22.6529 83.0637 22.6529C83.6693 22.6529 84.1883 22.5663 84.6209 22.393C85.0534 22.2198 85.5075 21.9382 85.9401 21.5701L88.2541 23.974C87.043 25.3383 85.2696 26.0097 82.934 26.0097C81.485 26.0097 80.1874 25.7282 79.0844 25.1867C77.9815 24.6237 77.1164 23.8657 76.5109 22.8695C75.9053 21.8949 75.6025 20.7687 75.6025 19.5127C75.6025 18.2782 75.9053 17.1737 76.4892 16.1992C77.0732 15.2246 77.895 14.4666 78.933 13.9035C79.9711 13.3404 81.1606 13.0806 82.4582 13.0806C83.7125 13.0806 84.8371 13.3404 85.8536 13.8602C86.87 14.38 87.6702 15.1163 88.2541 16.0909C88.838 17.0654 89.1408 18.2349 89.1408 19.556C89.1408 19.5776 89.1192 19.9458 89.0759 20.6388ZM80.7929 16.7622C80.3388 17.1521 80.0576 17.6718 79.9279 18.3215H85.0534C84.9236 17.6502 84.6425 17.1304 84.1883 16.7622C83.7342 16.3724 83.1719 16.1775 82.5014 16.1775C81.8094 16.1775 81.2471 16.3724 80.7929 16.7622Z" fill="white"/>
<path d="M102.701 13.86C103.631 14.3798 104.366 15.1378 104.907 16.1123C105.448 17.0869 105.729 18.2347 105.729 19.5124C105.729 20.8118 105.448 21.938 104.907 22.9342C104.366 23.9088 103.631 24.6668 102.701 25.2082C101.771 25.7496 100.733 26.0095 99.6084 26.0095C97.9648 26.0095 96.7321 25.533 95.9103 24.5585V25.8146H91.7363V8.66235H96.1049V14.3581C96.9483 13.4918 98.1162 13.0587 99.5868 13.0587C100.733 13.0804 101.771 13.3402 102.701 13.86ZM100.582 21.7214C101.079 21.18 101.317 20.4653 101.317 19.5124C101.317 18.5812 101.079 17.8665 100.582 17.3468C100.084 16.827 99.457 16.5671 98.7001 16.5671C97.9215 16.5671 97.2944 16.827 96.8186 17.3468C96.3212 17.8665 96.0833 18.6028 96.0833 19.5124C96.0833 20.4437 96.3212 21.18 96.8186 21.7214C97.316 22.2629 97.9432 22.5227 98.7001 22.5227C99.457 22.5011 100.084 22.2412 100.582 21.7214Z" fill="white"/>
<path d="M121.474 13.2754V25.7931H117.3V24.4503C116.845 24.9484 116.283 25.3383 115.634 25.5981C114.986 25.858 114.315 25.988 113.58 25.988C111.958 25.988 110.682 25.5115 109.73 24.5586C108.779 23.6057 108.281 22.1764 108.281 20.2706V13.2754H112.65V19.5559C112.65 20.4871 112.823 21.1801 113.19 21.6133C113.537 22.0464 114.056 22.263 114.726 22.263C115.418 22.263 115.98 22.0248 116.413 21.5267C116.845 21.0502 117.062 20.2922 117.062 19.296V13.2754H121.474Z" fill="white"/>
<path d="M138.299 13.2754V23.4974C138.299 25.8147 137.671 27.5689 136.417 28.7167C135.163 29.8862 133.346 30.4493 130.989 30.4493C129.756 30.4493 128.61 30.3194 127.528 30.0378C126.447 29.7563 125.539 29.3448 124.782 28.825L126.382 25.7498C126.88 26.1612 127.528 26.4861 128.307 26.7243C129.086 26.9625 129.843 27.0925 130.599 27.0925C131.746 27.0925 132.589 26.8326 133.13 26.3345C133.67 25.8364 133.93 25.0784 133.93 24.0822V23.6707C133.087 24.6453 131.854 25.1434 130.21 25.1434C129.107 25.1434 128.091 24.8835 127.139 24.3854C126.209 23.8873 125.452 23.1726 124.912 22.263C124.349 21.3534 124.09 20.2922 124.09 19.0794C124.09 17.8883 124.371 16.8488 124.912 15.9392C125.474 15.0296 126.209 14.3149 127.139 13.8168C128.069 13.3187 129.107 13.0588 130.21 13.0588C131.984 13.0588 133.303 13.6436 134.125 14.7914V13.2754H138.299ZM133.195 20.9419C133.714 20.4655 133.973 19.8591 133.973 19.1011C133.973 18.3431 133.714 17.7367 133.216 17.2603C132.719 16.7838 132.048 16.5672 131.248 16.5672C130.448 16.5672 129.799 16.8055 129.28 17.2603C128.761 17.7367 128.502 18.3431 128.502 19.1011C128.502 19.8591 128.761 20.4655 129.28 20.9419C129.799 21.4184 130.448 21.6566 131.248 21.6566C132.027 21.6566 132.676 21.4184 133.195 20.9419Z" fill="white"/>
<path d="M144.332 25.165C143.251 24.6019 142.407 23.844 141.802 22.8477C141.196 21.8732 140.894 20.747 140.894 19.4909C140.894 18.2565 141.196 17.152 141.802 16.1774C142.407 15.2029 143.251 14.4232 144.311 13.8818C145.37 13.3404 146.581 13.0588 147.944 13.0588C149.306 13.0588 150.517 13.3404 151.577 13.8818C152.658 14.4232 153.48 15.1812 154.086 16.1774C154.691 17.152 154.994 18.2565 154.994 19.5126C154.994 20.7687 154.691 21.8732 154.086 22.8694C153.48 23.844 152.658 24.6236 151.577 25.1867C150.496 25.7498 149.285 26.0096 147.944 26.0096C146.625 25.988 145.414 25.7281 144.332 25.165ZM149.847 21.7216C150.344 21.1802 150.582 20.4655 150.582 19.5126C150.582 18.5813 150.344 17.8667 149.847 17.3469C149.35 16.8271 148.722 16.5672 147.965 16.5672C147.187 16.5672 146.56 16.8271 146.084 17.3469C145.587 17.8667 145.349 18.603 145.349 19.5126C145.349 20.4438 145.587 21.1802 146.084 21.7216C146.581 22.263 147.209 22.5229 147.965 22.5229C148.722 22.5012 149.35 22.2413 149.847 21.7216Z" fill="white"/>
<path d="M157.61 8.66235H162.001V25.7929H157.632V8.66235H157.61Z" fill="white"/>
<path d="M38.8147 8.09966C36.5655 8.09966 34.7705 6.28049 34.7705 4.04983C34.7705 1.79752 36.5871 0 38.8147 0C41.0639 0 42.8589 1.81918 42.8589 4.04983C42.8805 6.28049 41.0639 8.09966 38.8147 8.09966Z" fill="#F7931E"/>
<path d="M43.2263 13.0588V27.5473C43.2263 31.4888 42.1017 34.5424 39.8525 36.7298C37.6033 38.9171 34.4459 39.9999 30.4233 39.9999C26.3791 39.9999 23.2432 38.9171 20.9725 36.7298C19.3072 35.1271 18.2691 33.0264 17.8366 30.4709C16.5174 30.8174 15.09 30.969 13.4896 30.969C9.44546 30.969 6.30959 29.8862 4.06042 27.6989C1.78962 25.5332 0.665039 22.4795 0.665039 18.538V4.04956H9.53196V18.2781C9.53196 20.2056 9.87799 21.6133 10.57 22.5012C11.2621 23.3891 12.2569 23.8223 13.5545 23.8223C14.8521 23.8223 15.8469 23.3891 16.539 22.5012C17.231 21.6133 17.5771 20.2056 17.5771 18.2781V8.72744H26.2926V27.2874C26.2926 29.2148 26.79 30.6225 27.4821 31.5105C28.1741 32.3984 29.169 32.8315 30.4665 32.8315C31.7641 32.8315 32.759 32.3984 33.451 31.5105C34.1431 30.6225 34.4891 29.2148 34.4891 27.2874V13.0588H43.2263Z" fill="#6F00FF"/>
<path d="M63.9643 33.4386C64.2887 33.7851 64.4618 34.3266 64.4618 35.0196V37.7484H63.1642V35.2362C63.1642 34.868 63.0993 34.5648 62.9479 34.3915C62.7965 34.1966 62.5802 34.11 62.3207 34.11C62.0179 34.11 61.7801 34.2183 61.5854 34.4349C61.4124 34.6514 61.3259 34.9546 61.3259 35.3661V37.77H60.0283V35.2578C60.0283 34.4998 59.7472 34.1317 59.1849 34.1317C58.8821 34.1317 58.6442 34.2399 58.4712 34.4565C58.2982 34.6731 58.2117 34.9763 58.2117 35.3878V37.7917H56.9141V33.0055H58.1468V33.5469C58.3198 33.352 58.5144 33.2004 58.7523 33.0921C58.9902 32.9838 59.2497 32.9405 59.5525 32.9405C59.8769 32.9405 60.1581 33.0055 60.4176 33.1354C60.6771 33.2654 60.8717 33.4603 61.0231 33.7202C61.1961 33.482 61.434 33.287 61.7152 33.1354C61.9963 33.0055 62.2991 32.9405 62.6451 32.9405C63.1858 32.9189 63.6399 33.0921 63.9643 33.4386Z" fill="white"/>
<path d="M66.9699 37.5316C66.6022 37.315 66.2995 37.0335 66.0832 36.6653C65.8669 36.2972 65.7588 35.864 65.7588 35.3876C65.7588 34.9111 65.8669 34.4997 66.0832 34.1098C66.2995 33.7417 66.5806 33.4385 66.9699 33.2436C67.3375 33.027 67.7701 32.9187 68.2459 32.9187C68.7216 32.9187 69.1325 33.027 69.5218 33.2436C69.8895 33.4601 70.1922 33.7417 70.3869 34.1098C70.6032 34.478 70.7113 34.9111 70.7113 35.3876C70.7113 35.864 70.6032 36.2755 70.3869 36.6653C70.1706 37.0335 69.8895 37.3367 69.5218 37.5316C69.1542 37.7482 68.7216 37.8565 68.2459 37.8565C67.7701 37.8348 67.3592 37.7265 66.9699 37.5316ZM69.0677 36.3405C69.2839 36.1023 69.3921 35.7774 69.3921 35.3876C69.3921 34.9761 69.2839 34.6729 69.0677 34.4347C68.8514 34.1965 68.5703 34.0665 68.2459 34.0665C67.9215 34.0665 67.6403 34.1965 67.424 34.4347C67.2078 34.6729 67.0996 34.9978 67.0996 35.3876C67.0996 35.7991 67.2078 36.1023 67.424 36.3405C67.6403 36.5787 67.9215 36.7087 68.2459 36.7087C68.5703 36.7087 68.8514 36.5787 69.0677 36.3405Z" fill="white"/>
<path d="M76.0754 33.4603C76.4215 33.8068 76.5945 34.3482 76.5945 35.0412V37.77H75.2969V35.2578C75.2969 34.8896 75.2104 34.5865 75.059 34.4132C74.9076 34.2183 74.6697 34.1317 74.3886 34.1317C74.0642 34.1317 73.8046 34.2399 73.61 34.4565C73.4154 34.6731 73.3288 34.9979 73.3288 35.4094V37.77H72.0312V32.9838H73.264V33.5469C73.437 33.352 73.6533 33.2004 73.9128 33.0705C74.1723 32.9622 74.4534 32.8972 74.7562 32.8972C75.2969 32.9189 75.7294 33.0921 76.0754 33.4603Z" fill="white"/>
<path d="M82.6277 35.7774H79.2323C79.2972 36.0806 79.4269 36.2972 79.6648 36.4704C79.9027 36.6437 80.1839 36.7303 80.5083 36.7303C80.7462 36.7303 80.9408 36.687 81.1355 36.622C81.3085 36.5571 81.4815 36.4271 81.6329 36.2755L82.3249 37.0768C81.8924 37.5966 81.2868 37.8565 80.4867 37.8565C79.9892 37.8565 79.5351 37.7482 79.1458 37.5316C78.7565 37.315 78.4538 37.0335 78.2375 36.6653C78.0212 36.2972 77.9131 35.864 77.9131 35.3876C77.9131 34.9111 78.0212 34.4997 78.2159 34.1315C78.4321 33.7633 78.7133 33.4601 79.0809 33.2436C79.4486 33.027 79.8595 32.9187 80.292 32.9187C80.7245 32.9187 81.1355 33.027 81.4815 33.2219C81.8275 33.4168 82.1087 33.72 82.3249 34.0882C82.5196 34.4563 82.6277 34.9111 82.6277 35.3876C82.6493 35.4092 82.6277 35.5392 82.6277 35.7774ZM79.5783 34.2398C79.3837 34.413 79.2539 34.6512 79.2107 34.9761H81.4166C81.3733 34.6729 81.2436 34.4347 81.0489 34.2614C80.8543 34.0882 80.5948 33.9799 80.3136 33.9799C80.0325 33.9582 79.773 34.0665 79.5783 34.2398Z" fill="white"/>
<path d="M88.3161 32.9836L86.2832 38.0513C86.0885 38.5928 85.829 38.9826 85.5262 39.2208C85.2235 39.4374 84.8558 39.5673 84.4233 39.5673C84.1854 39.5673 83.9691 39.524 83.7312 39.459C83.4933 39.3724 83.3203 39.2858 83.1689 39.1342L83.6447 38.138C83.7529 38.2246 83.861 38.3112 83.9908 38.3545C84.1205 38.3979 84.2503 38.4412 84.38 38.4412C84.5531 38.4412 84.7044 38.3979 84.8126 38.3112C84.9207 38.2246 85.0288 38.073 85.1153 37.8564L85.137 37.8131L83.1906 33.0053H84.5314L85.7858 36.2538L87.0617 33.0053H88.3161V32.9836Z" fill="white"/>
<path d="M96.3608 33.4386C96.6852 33.7851 96.8582 34.3266 96.8582 35.0196V37.7484H95.5606V35.2362C95.5606 34.868 95.4958 34.5648 95.3444 34.3915C95.193 34.1966 94.9767 34.11 94.7172 34.11C94.4144 34.11 94.1765 34.2183 93.9819 34.4349C93.8089 34.6514 93.7224 34.9546 93.7224 35.3661V37.77H92.4248V35.2578C92.4248 34.4998 92.1436 34.1317 91.5813 34.1317C91.2786 34.1317 91.0407 34.2399 90.8677 34.4565C90.6947 34.6731 90.6081 34.9763 90.6081 35.3878V37.7917H89.3105V33.0055H90.5433V33.5469C90.7163 33.352 90.9109 33.2004 91.1488 33.0921C91.3867 32.9838 91.6462 32.9405 91.949 32.9405C92.2734 32.9405 92.5545 33.0055 92.8141 33.1354C93.0736 33.2654 93.2682 33.4603 93.4196 33.7202C93.5926 33.482 93.8305 33.287 94.1117 33.1354C94.3928 33.0055 94.6956 32.9405 95.0416 32.9405C95.5823 32.9189 96.0364 33.0921 96.3608 33.4386Z" fill="white"/>
<path d="M101.876 33.4386C102.243 33.7851 102.438 34.3266 102.438 35.0412V37.77H101.227V37.1853C100.989 37.6401 100.535 37.8566 99.8645 37.8566C99.5184 37.8566 99.2157 37.7917 98.9778 37.6617C98.7183 37.5318 98.5236 37.3585 98.3939 37.142C98.2641 36.9254 98.1992 36.6655 98.1992 36.4056C98.1992 35.9508 98.3506 35.6043 98.675 35.3661C98.9994 35.1062 99.4752 34.9763 100.124 34.9763H101.162C101.162 34.6731 101.076 34.4349 100.903 34.2833C100.73 34.11 100.47 34.045 100.124 34.045C99.8861 34.045 99.6482 34.0883 99.4103 34.175C99.1724 34.2616 98.9778 34.3699 98.8264 34.4998L98.3506 33.5253C98.5885 33.352 98.8913 33.2004 99.2373 33.0921C99.5833 32.9838 99.9294 32.9405 100.297 32.9405C100.967 32.9189 101.508 33.0921 101.876 33.4386ZM100.773 36.7521C100.946 36.6439 101.076 36.4706 101.14 36.2757V35.7776H100.254C99.7131 35.7776 99.4536 35.9725 99.4536 36.3407C99.4536 36.5139 99.5184 36.6655 99.6482 36.7521C99.778 36.8604 99.951 36.9037 100.189 36.9037C100.405 36.9037 100.6 36.8604 100.773 36.7521Z" fill="white"/>
<path d="M105.963 35.886L105.336 36.5357V37.7485H104.038V31.1648H105.336V34.8898L107.239 32.9623H108.796L106.936 34.9764L108.969 37.7268H107.39L105.963 35.886Z" fill="white"/>
<path d="M110.029 32.0958C109.877 31.9442 109.812 31.7709 109.812 31.5544C109.812 31.3378 109.877 31.1429 110.029 31.013C110.18 30.8614 110.375 30.7964 110.613 30.7964C110.851 30.7964 111.045 30.8614 111.197 31.013C111.348 31.1646 111.413 31.3378 111.413 31.5544C111.413 31.7926 111.348 31.9659 111.197 32.1175C111.045 32.2691 110.851 32.334 110.613 32.334C110.375 32.334 110.159 32.2474 110.029 32.0958ZM109.942 32.9837H111.24V37.7699H109.942V32.9837Z" fill="white"/>
<path d="M116.97 33.4603C117.316 33.8068 117.489 34.3482 117.489 35.0412V37.77H116.191V35.2578C116.191 34.8896 116.105 34.5865 115.954 34.4132C115.802 34.2183 115.564 34.1317 115.283 34.1317C114.959 34.1317 114.699 34.2399 114.505 34.4565C114.31 34.6731 114.223 34.9979 114.223 35.4094V37.77H112.926V32.9838H114.159V33.5469C114.332 33.352 114.548 33.2004 114.807 33.0705C115.067 32.9622 115.348 32.8972 115.651 32.8972C116.17 32.9189 116.624 33.0921 116.97 33.4603Z" fill="white"/>
<path d="M123.761 32.9838V36.9687C123.761 37.835 123.545 38.5063 123.112 38.9178C122.68 39.3293 122.053 39.5675 121.231 39.5675C120.798 39.5675 120.387 39.5026 119.998 39.3943C119.609 39.286 119.285 39.1127 119.025 38.8962L119.544 37.8999C119.739 38.0732 119.977 38.2031 120.258 38.2898C120.539 38.3981 120.842 38.4414 121.123 38.4414C121.577 38.4414 121.901 38.3331 122.118 38.1165C122.334 37.8999 122.442 37.5751 122.442 37.142V36.947C122.096 37.3369 121.642 37.5318 121.036 37.5318C120.625 37.5318 120.258 37.4452 119.912 37.2502C119.566 37.0553 119.306 36.7955 119.09 36.4273C118.895 36.0808 118.787 35.6693 118.787 35.2145C118.787 34.7597 118.895 34.3482 119.09 34.0017C119.285 33.6552 119.566 33.3737 119.912 33.1788C120.258 32.9838 120.625 32.8972 121.036 32.8972C121.685 32.8972 122.182 33.1354 122.529 33.5902V32.9838H123.761ZM122.161 36.0808C122.377 35.8642 122.485 35.5827 122.485 35.2362C122.485 34.8896 122.377 34.6081 122.161 34.3915C121.945 34.175 121.663 34.0667 121.317 34.0667C120.971 34.0667 120.69 34.175 120.474 34.3915C120.258 34.6081 120.15 34.8896 120.15 35.2362C120.15 35.5827 120.258 35.8642 120.474 36.0808C120.69 36.2973 120.971 36.4056 121.317 36.4056C121.663 36.4056 121.945 36.2973 122.161 36.0808Z" fill="white"/>
<path d="M131.612 33.4386C131.98 33.7851 132.174 34.3266 132.174 35.0412V37.77H130.963V37.1853C130.725 37.6401 130.271 37.8566 129.601 37.8566C129.255 37.8566 128.952 37.7917 128.714 37.6617C128.455 37.5318 128.26 37.3585 128.13 37.142C128 36.9254 127.936 36.6655 127.936 36.4056C127.936 35.9508 128.087 35.6043 128.411 35.3661C128.736 35.1062 129.212 34.9763 129.86 34.9763H130.898C130.898 34.6731 130.812 34.4349 130.639 34.2833C130.466 34.11 130.206 34.045 129.86 34.045C129.622 34.045 129.385 34.0883 129.147 34.175C128.909 34.2616 128.714 34.3699 128.563 34.4998L128.087 33.5253C128.325 33.352 128.628 33.2004 128.974 33.0921C129.32 32.9838 129.666 32.9405 130.033 32.9405C130.725 32.9189 131.244 33.0921 131.612 33.4386ZM130.509 36.7521C130.682 36.6439 130.812 36.4706 130.877 36.2757V35.7776H129.99C129.449 35.7776 129.19 35.9725 129.19 36.3407C129.19 36.5139 129.255 36.6655 129.385 36.7521C129.514 36.8604 129.687 36.9037 129.925 36.9037C130.141 36.9037 130.336 36.8604 130.509 36.7521Z" fill="white"/>
<path d="M138.403 31.1863V37.77H137.17V37.2285C136.846 37.64 136.392 37.8566 135.765 37.8566C135.332 37.8566 134.964 37.7483 134.618 37.5534C134.272 37.3585 134.013 37.0553 133.818 36.6871C133.624 36.319 133.537 35.8858 133.537 35.3877C133.537 34.8896 133.624 34.4565 133.818 34.0883C134.013 33.7201 134.272 33.4386 134.618 33.222C134.964 33.0055 135.332 32.9188 135.765 32.9188C136.327 32.9188 136.781 33.1137 137.106 33.5036V31.1863H138.403ZM136.803 36.3406C137.019 36.1024 137.127 35.7775 137.127 35.3877C137.127 34.9762 137.019 34.673 136.803 34.4348C136.586 34.1966 136.305 34.0666 135.981 34.0666C135.657 34.0666 135.375 34.1966 135.159 34.4348C134.943 34.673 134.835 34.9979 134.835 35.3877C134.835 35.7992 134.943 36.1024 135.159 36.3406C135.375 36.5788 135.657 36.7088 135.981 36.7088C136.327 36.7088 136.586 36.5788 136.803 36.3406Z" fill="white"/>
<path d="M140.459 37.6834C140.113 37.5751 139.81 37.4668 139.615 37.3152L140.048 36.319C140.242 36.4489 140.48 36.5572 140.783 36.6439C141.064 36.7305 141.345 36.7738 141.627 36.7738C142.167 36.7738 142.448 36.6222 142.448 36.3407C142.448 36.2107 142.383 36.1024 142.232 36.0375C142.081 35.9725 141.843 35.9292 141.54 35.8859C141.172 35.8209 140.87 35.7559 140.632 35.691C140.394 35.6043 140.178 35.4744 140.005 35.2795C139.831 35.0846 139.745 34.803 139.745 34.4349C139.745 34.1317 139.832 33.8718 139.983 33.6335C140.156 33.3953 140.394 33.2221 140.697 33.0921C141.021 32.9622 141.389 32.8972 141.8 32.8972C142.124 32.8972 142.427 32.9405 142.751 33.0055C143.075 33.0705 143.335 33.1788 143.53 33.3087L143.097 34.3049C142.708 34.0667 142.275 33.9584 141.8 33.9584C141.518 33.9584 141.324 34.0017 141.172 34.0883C141.043 34.175 140.956 34.2833 140.956 34.4132C140.956 34.5648 141.021 34.6731 141.172 34.7164C141.324 34.7814 141.562 34.8247 141.886 34.8896C142.254 34.9546 142.556 35.0196 142.794 35.1062C143.032 35.1712 143.227 35.3228 143.4 35.5177C143.573 35.7126 143.659 35.9941 143.659 36.3407C143.659 36.6439 143.573 36.9037 143.4 37.1203C143.227 37.3585 142.989 37.5318 142.665 37.6617C142.34 37.7917 141.973 37.8566 141.518 37.8566C141.194 37.835 140.826 37.7917 140.459 37.6834Z" fill="white"/>
</svg>
