<svg width="162" height="40" viewBox="0 0 162 40" fill="none" xmlns="http://www.w3.org/2000/svg">
<path d="M74.8021 13.2749L70.3686 25.7926H66.1298L63.7725 18.9923L61.3287 25.7926H57.0899L52.6348 13.2749H56.7871L59.339 20.8548L61.9991 13.2749H65.7405L68.3141 20.9198L70.9525 13.2749H74.8021Z" fill="white"/>
<path d="M89.0759 20.6388H79.9927C80.1874 21.2885 80.5334 21.7866 81.0741 22.1331C81.6147 22.4796 82.2635 22.6529 83.0637 22.6529C83.6693 22.6529 84.1883 22.5663 84.6209 22.393C85.0534 22.2198 85.5075 21.9382 85.9401 21.5701L88.2541 23.974C87.043 25.3383 85.2696 26.0097 82.934 26.0097C81.485 26.0097 80.1874 25.7282 79.0844 25.1867C77.9815 24.6237 77.1164 23.8657 76.5109 22.8695C75.9053 21.8949 75.6025 20.7687 75.6025 19.5127C75.6025 18.2782 75.9053 17.1737 76.4892 16.1992C77.0732 15.2246 77.895 14.4666 78.933 13.9035C79.9711 13.3404 81.1606 13.0806 82.4582 13.0806C83.7125 13.0806 84.8371 13.3404 85.8536 13.8602C86.87 14.38 87.6702 15.1163 88.2541 16.0909C88.838 17.0654 89.1408 18.2349 89.1408 19.556C89.1408 19.5776 89.1192 19.9458 89.0759 20.6388ZM80.7929 16.7622C80.3388 17.1521 80.0576 17.6718 79.9279 18.3215H85.0534C84.9236 17.6502 84.6425 17.1304 84.1883 16.7622C83.7342 16.3724 83.1719 16.1775 82.5014 16.1775C81.8094 16.1775 81.2471 16.3724 80.7929 16.7622Z" fill="white"/>
<path d="M102.701 13.8598C103.631 14.3795 104.366 15.1375 104.907 16.1121C105.448 17.0866 105.729 18.2344 105.729 19.5122C105.729 20.8116 105.448 21.9378 104.907 22.934C104.366 23.9085 103.631 24.6665 102.701 25.2079C101.771 25.7494 100.733 26.0093 99.6084 26.0093C97.9648 26.0093 96.7321 25.5328 95.9103 24.5582V25.8143H91.7363V8.66211H96.1049V14.3579C96.9483 13.4916 98.1162 13.0585 99.5868 13.0585C100.733 13.0801 101.771 13.34 102.701 13.8598ZM100.582 21.7212C101.079 21.1798 101.317 20.4651 101.317 19.5122C101.317 18.5809 101.079 17.8663 100.582 17.3465C100.084 16.8267 99.457 16.5669 98.7001 16.5669C97.9215 16.5669 97.2944 16.8267 96.8186 17.3465C96.3212 17.8663 96.0833 18.6026 96.0833 19.5122C96.0833 20.4434 96.3212 21.1798 96.8186 21.7212C97.316 22.2626 97.9432 22.5225 98.7001 22.5225C99.457 22.5008 100.084 22.241 100.582 21.7212Z" fill="white"/>
<path d="M121.474 13.2749V25.7926H117.3V24.4498C116.845 24.9479 116.283 25.3378 115.634 25.5977C114.986 25.8575 114.315 25.9875 113.58 25.9875C111.958 25.9875 110.682 25.511 109.73 24.5581C108.779 23.6052 108.281 22.1759 108.281 20.2701V13.2749H112.65V19.5554C112.65 20.4866 112.823 21.1797 113.19 21.6128C113.537 22.0459 114.056 22.2625 114.726 22.2625C115.418 22.2625 115.98 22.0243 116.413 21.5262C116.845 21.0497 117.062 20.2917 117.062 19.2955V13.2749H121.474Z" fill="white"/>
<path d="M138.299 13.2752V23.4972C138.299 25.8145 137.671 27.5687 136.417 28.7165C135.163 29.886 133.346 30.4491 130.989 30.4491C129.756 30.4491 128.61 30.3191 127.528 30.0376C126.447 29.756 125.539 29.3446 124.782 28.8248L126.382 25.7495C126.88 26.161 127.528 26.4858 128.307 26.7241C129.086 26.9623 129.843 27.0922 130.599 27.0922C131.746 27.0922 132.589 26.8324 133.13 26.3342C133.67 25.8361 133.93 25.0782 133.93 24.0819V23.6705C133.087 24.645 131.854 25.1431 130.21 25.1431C129.107 25.1431 128.091 24.8832 127.139 24.3851C126.209 23.887 125.452 23.1723 124.912 22.2628C124.349 21.3532 124.09 20.292 124.09 19.0792C124.09 17.8881 124.371 16.8485 124.912 15.939C125.474 15.0294 126.209 14.3147 127.139 13.8166C128.069 13.3185 129.107 13.0586 130.21 13.0586C131.984 13.0586 133.303 13.6433 134.125 14.7911V13.2752H138.299ZM133.195 20.9417C133.714 20.4652 133.973 19.8588 133.973 19.1009C133.973 18.3429 133.714 17.7365 133.216 17.26C132.719 16.7836 132.048 16.567 131.248 16.567C130.448 16.567 129.799 16.8052 129.28 17.26C128.761 17.7365 128.502 18.3429 128.502 19.1009C128.502 19.8588 128.761 20.4652 129.28 20.9417C129.799 21.4181 130.448 21.6564 131.248 21.6564C132.027 21.6564 132.676 21.4181 133.195 20.9417Z" fill="white"/>
<path d="M144.332 25.1648C143.251 24.6017 142.407 23.8437 141.802 22.8475C141.196 21.8729 140.894 20.7468 140.894 19.4907C140.894 18.2562 141.196 17.1517 141.802 16.1772C142.407 15.2026 143.251 14.423 144.311 13.8816C145.37 13.3401 146.581 13.0586 147.944 13.0586C149.306 13.0586 150.517 13.3401 151.577 13.8816C152.658 14.423 153.48 15.181 154.086 16.1772C154.691 17.1517 154.994 18.2562 154.994 19.5123C154.994 20.7684 154.691 21.8729 154.086 22.8691C153.48 23.8437 152.658 24.6234 151.577 25.1864C150.496 25.7495 149.285 26.0094 147.944 26.0094C146.625 25.9877 145.414 25.7279 144.332 25.1648ZM149.847 21.7213C150.344 21.1799 150.582 20.4652 150.582 19.5123C150.582 18.5811 150.344 17.8664 149.847 17.3467C149.35 16.8269 148.722 16.567 147.965 16.567C147.187 16.567 146.56 16.8269 146.084 17.3467C145.587 17.8664 145.349 18.6027 145.349 19.5123C145.349 20.4436 145.587 21.1799 146.084 21.7213C146.581 22.2628 147.209 22.5226 147.965 22.5226C148.722 22.501 149.35 22.2411 149.847 21.7213Z" fill="white"/>
<path d="M157.61 8.66211H162.001V25.7927H157.632V8.66211H157.61Z" fill="white"/>
<path d="M38.8147 8.09966C36.5655 8.09966 34.7705 6.28049 34.7705 4.04983C34.7705 1.79752 36.5871 0 38.8147 0C41.0639 0 42.8589 1.81918 42.8589 4.04983C42.8805 6.28049 41.0639 8.09966 38.8147 8.09966Z" fill="white"/>
<path d="M43.2263 13.0586V27.547C43.2263 31.4886 42.1017 34.5422 39.8525 36.7295C37.6033 38.9169 34.4459 39.9997 30.4233 39.9997C26.3791 39.9997 23.2432 38.9169 20.9725 36.7295C19.3072 35.1269 18.2691 33.0262 17.8366 30.4707C16.5174 30.8172 15.09 30.9688 13.4896 30.9688C9.44546 30.9688 6.30959 29.8859 4.06042 27.6986C1.78962 25.5329 0.665039 22.4793 0.665039 18.5378V4.04932H9.53196V18.2779C9.53196 20.2053 9.87799 21.613 10.57 22.501C11.2621 23.3889 12.2569 23.822 13.5545 23.822C14.8521 23.822 15.8469 23.3889 16.539 22.501C17.231 21.613 17.5771 20.2053 17.5771 18.2779V8.7272H26.2926V27.2871C26.2926 29.2146 26.79 30.6223 27.4821 31.5102C28.1741 32.3981 29.169 32.8313 30.4665 32.8313C31.7641 32.8313 32.759 32.3981 33.451 31.5102C34.1431 30.6223 34.4891 29.2146 34.4891 27.2871V13.0586H43.2263Z" fill="white"/>
<path d="M63.9643 33.4384C64.2887 33.7849 64.4618 34.3263 64.4618 35.0193V37.7481H63.1642V35.2359C63.1642 34.8677 63.0993 34.5645 62.9479 34.3913C62.7965 34.1964 62.5802 34.1098 62.3207 34.1098C62.0179 34.1098 61.7801 34.218 61.5854 34.4346C61.4124 34.6512 61.3259 34.9544 61.3259 35.3659V37.7698H60.0283V35.2576C60.0283 34.4996 59.7472 34.1314 59.1849 34.1314C58.8821 34.1314 58.6442 34.2397 58.4712 34.4563C58.2982 34.6728 58.2117 34.976 58.2117 35.3875V37.7914H56.9141V33.0053H58.1468V33.5467C58.3198 33.3518 58.5144 33.2002 58.7523 33.0919C58.9902 32.9836 59.2497 32.9403 59.5525 32.9403C59.8769 32.9403 60.1581 33.0053 60.4176 33.1352C60.6771 33.2651 60.8717 33.4601 61.0231 33.7199C61.1961 33.4817 61.434 33.2868 61.7152 33.1352C61.9963 33.0053 62.2991 32.9403 62.6451 32.9403C63.1858 32.9186 63.6399 33.0919 63.9643 33.4384Z" fill="white"/>
<path d="M66.9699 37.5319C66.6022 37.3153 66.2995 37.0337 66.0832 36.6656C65.8669 36.2974 65.7588 35.8643 65.7588 35.3878C65.7588 34.9114 65.8669 34.4999 66.0832 34.1101C66.2995 33.7419 66.5806 33.4387 66.9699 33.2438C67.3375 33.0272 67.7701 32.9189 68.2459 32.9189C68.7216 32.9189 69.1325 33.0272 69.5218 33.2438C69.8895 33.4604 70.1922 33.7419 70.3869 34.1101C70.6032 34.4782 70.7113 34.9114 70.7113 35.3878C70.7113 35.8643 70.6032 36.2758 70.3869 36.6656C70.1706 37.0337 69.8895 37.3369 69.5218 37.5319C69.1542 37.7484 68.7216 37.8567 68.2459 37.8567C67.7701 37.8351 67.3592 37.7268 66.9699 37.5319ZM69.0677 36.3407C69.2839 36.1025 69.3921 35.7777 69.3921 35.3878C69.3921 34.9763 69.2839 34.6732 69.0677 34.4349C68.8514 34.1967 68.5703 34.0668 68.2459 34.0668C67.9215 34.0668 67.6403 34.1967 67.424 34.4349C67.2078 34.6732 67.0996 34.998 67.0996 35.3878C67.0996 35.7993 67.2078 36.1025 67.424 36.3407C67.6403 36.579 67.9215 36.7089 68.2459 36.7089C68.5703 36.7089 68.8514 36.579 69.0677 36.3407Z" fill="white"/>
<path d="M76.0754 33.4605C76.4215 33.807 76.5945 34.3485 76.5945 35.0415V37.7703H75.2969V35.2581C75.2969 34.8899 75.2104 34.5867 75.059 34.4134C74.9076 34.2185 74.6697 34.1319 74.3886 34.1319C74.0642 34.1319 73.8046 34.2402 73.61 34.4568C73.4154 34.6733 73.3288 34.9982 73.3288 35.4097V37.7703H72.0312V32.9841H73.264V33.5472C73.437 33.3523 73.6533 33.2007 73.9128 33.0707C74.1723 32.9624 74.4534 32.8975 74.7562 32.8975C75.2969 32.9191 75.7294 33.0924 76.0754 33.4605Z" fill="white"/>
<path d="M82.6277 35.7777H79.2323C79.2972 36.0808 79.4269 36.2974 79.6648 36.4707C79.9027 36.6439 80.1839 36.7306 80.5083 36.7306C80.7462 36.7306 80.9408 36.6872 81.1355 36.6223C81.3085 36.5573 81.4815 36.4274 81.6329 36.2758L82.3249 37.0771C81.8924 37.5968 81.2868 37.8567 80.4867 37.8567C79.9892 37.8567 79.5351 37.7484 79.1458 37.5319C78.7565 37.3153 78.4538 37.0337 78.2375 36.6656C78.0212 36.2974 77.9131 35.8643 77.9131 35.3878C77.9131 34.9114 78.0212 34.4999 78.2159 34.1317C78.4321 33.7636 78.7133 33.4604 79.0809 33.2438C79.4486 33.0272 79.8595 32.9189 80.292 32.9189C80.7245 32.9189 81.1355 33.0272 81.4815 33.2221C81.8275 33.4171 82.1087 33.7203 82.3249 34.0884C82.5196 34.4566 82.6277 34.9114 82.6277 35.3878C82.6493 35.4095 82.6277 35.5394 82.6277 35.7777ZM79.5783 34.24C79.3837 34.4133 79.2539 34.6515 79.2107 34.9763H81.4166C81.3733 34.6732 81.2436 34.4349 81.0489 34.2617C80.8543 34.0884 80.5948 33.9801 80.3136 33.9801C80.0325 33.9585 79.773 34.0668 79.5783 34.24Z" fill="white"/>
<path d="M88.3161 32.9834L86.2832 38.0511C86.0885 38.5925 85.829 38.9823 85.5262 39.2206C85.2235 39.4371 84.8558 39.5671 84.4233 39.5671C84.1854 39.5671 83.9691 39.5238 83.7312 39.4588C83.4933 39.3722 83.3203 39.2855 83.1689 39.1339L83.6447 38.1377C83.7529 38.2244 83.861 38.311 83.9908 38.3543C84.1205 38.3976 84.2503 38.4409 84.38 38.4409C84.5531 38.4409 84.7044 38.3976 84.8126 38.311C84.9207 38.2244 85.0288 38.0728 85.1153 37.8562L85.137 37.8129L83.1906 33.0051H84.5314L85.7858 36.2536L87.0617 33.0051H88.3161V32.9834Z" fill="white"/>
<path d="M96.3608 33.4384C96.6852 33.7849 96.8582 34.3263 96.8582 35.0193V37.7481H95.5606V35.2359C95.5606 34.8677 95.4958 34.5645 95.3444 34.3913C95.193 34.1964 94.9767 34.1098 94.7172 34.1098C94.4144 34.1098 94.1765 34.218 93.9819 34.4346C93.8089 34.6512 93.7224 34.9544 93.7224 35.3659V37.7698H92.4248V35.2576C92.4248 34.4996 92.1436 34.1314 91.5813 34.1314C91.2786 34.1314 91.0407 34.2397 90.8677 34.4563C90.6947 34.6728 90.6081 34.976 90.6081 35.3875V37.7914H89.3105V33.0053H90.5433V33.5467C90.7163 33.3518 90.9109 33.2002 91.1488 33.0919C91.3867 32.9836 91.6462 32.9403 91.949 32.9403C92.2734 32.9403 92.5545 33.0053 92.8141 33.1352C93.0736 33.2651 93.2682 33.4601 93.4196 33.7199C93.5926 33.4817 93.8305 33.2868 94.1117 33.1352C94.3928 33.0053 94.6956 32.9403 95.0416 32.9403C95.5823 32.9186 96.0364 33.0919 96.3608 33.4384Z" fill="white"/>
<path d="M101.876 33.4384C102.243 33.7849 102.438 34.3263 102.438 35.041V37.7698H101.227V37.185C100.989 37.6398 100.535 37.8564 99.8645 37.8564C99.5184 37.8564 99.2157 37.7914 98.9778 37.6615C98.7183 37.5315 98.5236 37.3583 98.3939 37.1417C98.2641 36.9251 98.1992 36.6653 98.1992 36.4054C98.1992 35.9506 98.3506 35.6041 98.675 35.3659C98.9994 35.106 99.4752 34.976 100.124 34.976H101.162C101.162 34.6728 101.076 34.4346 100.903 34.283C100.73 34.1098 100.47 34.0448 100.124 34.0448C99.8861 34.0448 99.6482 34.0881 99.4103 34.1747C99.1724 34.2614 98.9778 34.3696 98.8264 34.4996L98.3506 33.525C98.5885 33.3518 98.8913 33.2002 99.2373 33.0919C99.5833 32.9836 99.9294 32.9403 100.297 32.9403C100.967 32.9186 101.508 33.0919 101.876 33.4384ZM100.773 36.7519C100.946 36.6436 101.076 36.4704 101.14 36.2754V35.7773H100.254C99.7131 35.7773 99.4536 35.9722 99.4536 36.3404C99.4536 36.5137 99.5184 36.6653 99.6482 36.7519C99.778 36.8602 99.951 36.9035 100.189 36.9035C100.405 36.9035 100.6 36.8602 100.773 36.7519Z" fill="white"/>
<path d="M105.963 35.8862L105.336 36.5359V37.7487H104.038V31.165H105.336V34.89L107.239 32.9626H108.796L106.936 34.9766L108.969 37.7271H107.39L105.963 35.8862Z" fill="white"/>
<path d="M110.029 32.0958C109.877 31.9442 109.812 31.7709 109.812 31.5544C109.812 31.3378 109.877 31.1429 110.029 31.013C110.18 30.8614 110.375 30.7964 110.613 30.7964C110.851 30.7964 111.045 30.8614 111.197 31.013C111.348 31.1646 111.413 31.3378 111.413 31.5544C111.413 31.7926 111.348 31.9659 111.197 32.1175C111.045 32.2691 110.851 32.334 110.613 32.334C110.375 32.334 110.159 32.2474 110.029 32.0958ZM109.942 32.9837H111.24V37.7699H109.942V32.9837Z" fill="white"/>
<path d="M116.97 33.4605C117.316 33.807 117.489 34.3485 117.489 35.0415V37.7703H116.191V35.2581C116.191 34.8899 116.105 34.5867 115.954 34.4134C115.802 34.2185 115.564 34.1319 115.283 34.1319C114.959 34.1319 114.699 34.2402 114.505 34.4568C114.31 34.6733 114.223 34.9982 114.223 35.4097V37.7703H112.926V32.9841H114.159V33.5472C114.332 33.3523 114.548 33.2007 114.807 33.0707C115.067 32.9624 115.348 32.8975 115.651 32.8975C116.17 32.9191 116.624 33.0924 116.97 33.4605Z" fill="white"/>
<path d="M123.761 32.9841V36.969C123.761 37.8352 123.545 38.5066 123.112 38.9181C122.68 39.3295 122.053 39.5678 121.231 39.5678C120.798 39.5678 120.387 39.5028 119.998 39.3945C119.609 39.2862 119.285 39.113 119.025 38.8964L119.544 37.9002C119.739 38.0734 119.977 38.2034 120.258 38.29C120.539 38.3983 120.842 38.4416 121.123 38.4416C121.577 38.4416 121.901 38.3333 122.118 38.1168C122.334 37.9002 122.442 37.5753 122.442 37.1422V36.9473C122.096 37.3371 121.642 37.532 121.036 37.532C120.625 37.532 120.258 37.4454 119.912 37.2505C119.566 37.0556 119.306 36.7957 119.09 36.4275C118.895 36.081 118.787 35.6695 118.787 35.2147C118.787 34.7599 118.895 34.3485 119.09 34.002C119.285 33.6554 119.566 33.3739 119.912 33.179C120.258 32.9841 120.625 32.8975 121.036 32.8975C121.685 32.8975 122.182 33.1357 122.529 33.5905V32.9841H123.761ZM122.161 36.081C122.377 35.8644 122.485 35.5829 122.485 35.2364C122.485 34.8899 122.377 34.6084 122.161 34.3918C121.945 34.1752 121.663 34.0669 121.317 34.0669C120.971 34.0669 120.69 34.1752 120.474 34.3918C120.258 34.6084 120.15 34.8899 120.15 35.2364C120.15 35.5829 120.258 35.8644 120.474 36.081C120.69 36.2976 120.971 36.4059 121.317 36.4059C121.663 36.4059 121.945 36.2976 122.161 36.081Z" fill="white"/>
<path d="M131.612 33.4384C131.98 33.7849 132.174 34.3263 132.174 35.041V37.7698H130.963V37.185C130.725 37.6398 130.271 37.8564 129.601 37.8564C129.255 37.8564 128.952 37.7914 128.714 37.6615C128.455 37.5315 128.26 37.3583 128.13 37.1417C128 36.9251 127.936 36.6653 127.936 36.4054C127.936 35.9506 128.087 35.6041 128.411 35.3659C128.736 35.106 129.212 34.976 129.86 34.976H130.898C130.898 34.6728 130.812 34.4346 130.639 34.283C130.466 34.1098 130.206 34.0448 129.86 34.0448C129.622 34.0448 129.385 34.0881 129.147 34.1747C128.909 34.2614 128.714 34.3696 128.563 34.4996L128.087 33.525C128.325 33.3518 128.628 33.2002 128.974 33.0919C129.32 32.9836 129.666 32.9403 130.033 32.9403C130.725 32.9186 131.244 33.0919 131.612 33.4384ZM130.509 36.7519C130.682 36.6436 130.812 36.4704 130.877 36.2754V35.7773H129.99C129.449 35.7773 129.19 35.9722 129.19 36.3404C129.19 36.5137 129.255 36.6653 129.385 36.7519C129.514 36.8602 129.687 36.9035 129.925 36.9035C130.141 36.9035 130.336 36.8602 130.509 36.7519Z" fill="white"/>
<path d="M138.403 31.1865V37.7702H137.17V37.2288C136.846 37.6403 136.392 37.8568 135.765 37.8568C135.332 37.8568 134.964 37.7486 134.618 37.5536C134.272 37.3587 134.013 37.0555 133.818 36.6874C133.624 36.3192 133.537 35.8861 133.537 35.388C133.537 34.8898 133.624 34.4567 133.818 34.0885C134.013 33.7204 134.272 33.4388 134.618 33.2223C134.964 33.0057 135.332 32.9191 135.765 32.9191C136.327 32.9191 136.781 33.114 137.106 33.5038V31.1865H138.403ZM136.803 36.3409C137.019 36.1026 137.127 35.7778 137.127 35.388C137.127 34.9765 137.019 34.6733 136.803 34.4351C136.586 34.1968 136.305 34.0669 135.981 34.0669C135.657 34.0669 135.375 34.1968 135.159 34.4351C134.943 34.6733 134.835 34.9981 134.835 35.388C134.835 35.7994 134.943 36.1026 135.159 36.3409C135.375 36.5791 135.657 36.709 135.981 36.709C136.327 36.709 136.586 36.5791 136.803 36.3409Z" fill="white"/>
<path d="M140.459 37.6836C140.113 37.5753 139.81 37.4671 139.615 37.3155L140.048 36.3192C140.242 36.4492 140.48 36.5575 140.783 36.6441C141.064 36.7307 141.345 36.774 141.627 36.774C142.167 36.774 142.448 36.6224 142.448 36.3409C142.448 36.211 142.383 36.1027 142.232 36.0377C142.081 35.9727 141.843 35.9294 141.54 35.8861C141.172 35.8211 140.87 35.7562 140.632 35.6912C140.394 35.6046 140.178 35.4746 140.005 35.2797C139.831 35.0848 139.745 34.8033 139.745 34.4351C139.745 34.1319 139.832 33.872 139.983 33.6338C140.156 33.3956 140.394 33.2223 140.697 33.0924C141.021 32.9624 141.389 32.8975 141.8 32.8975C142.124 32.8975 142.427 32.9408 142.751 33.0057C143.075 33.0707 143.335 33.179 143.53 33.3089L143.097 34.3052C142.708 34.0669 142.275 33.9586 141.8 33.9586C141.518 33.9586 141.324 34.002 141.172 34.0886C141.043 34.1752 140.956 34.2835 140.956 34.4134C140.956 34.565 141.021 34.6733 141.172 34.7166C141.324 34.7816 141.562 34.8249 141.886 34.8899C142.254 34.9549 142.556 35.0198 142.794 35.1065C143.032 35.1714 143.227 35.323 143.4 35.5179C143.573 35.7129 143.659 35.9944 143.659 36.3409C143.659 36.6441 143.573 36.904 143.4 37.1205C143.227 37.3588 142.989 37.532 142.665 37.662C142.34 37.7919 141.973 37.8569 141.518 37.8569C141.194 37.8352 140.826 37.7919 140.459 37.6836Z" fill="white"/>
</svg>
