<svg width="293" height="231" viewBox="0 0 293 231" fill="none" xmlns="http://www.w3.org/2000/svg">
<path fill-rule="evenodd" clip-rule="evenodd" d="M31 31H261.4V261.4H31V31ZM60.9221 58.6593L36.4627 34.2H85.3814L60.9221 58.6593ZM63.1848 60.9221L87.6441 36.4627V85.3814L63.1848 60.9221ZM60.9221 63.1848L85.3814 87.6442H36.4627L60.9221 63.1848ZM58.6593 60.9221L34.2 85.3814V36.4627L58.6593 60.9221ZM117.774 58.6593L93.3147 34.2H142.233L117.774 58.6593ZM120.037 60.9221L144.496 36.4627V85.3814L120.037 60.9221ZM117.774 63.1848L142.233 87.6442H93.3147L117.774 63.1848ZM115.511 60.9221L91.0519 85.3814V36.4627L115.511 60.9221ZM150.167 34.2L174.626 58.6593L199.085 34.2H150.167ZM201.348 36.4627L176.889 60.9221L201.348 85.3814V36.4627ZM199.085 87.6442L174.626 63.1848L150.167 87.6442H199.085ZM147.904 85.3814L172.363 60.9221L147.904 36.4627V85.3814ZM231.478 58.6593L207.019 34.2H255.937L231.478 58.6593ZM233.741 60.9221L258.2 36.4627V85.3814L233.741 60.9221ZM231.478 63.1848L255.937 87.6442H207.019L231.478 63.1848ZM229.215 60.9221L204.756 85.3814V36.4627L229.215 60.9221ZM36.4627 91.0523L60.9221 115.512L85.3814 91.0523H36.4627ZM87.6441 93.3151L63.1848 117.774L87.6441 142.234V93.3151ZM85.3814 144.496L60.9221 120.037L36.4627 144.496H85.3814ZM34.2 142.234L58.6593 117.774L34.2 93.3151V142.234ZM117.774 115.512L93.3147 91.0523H142.233L117.774 115.512ZM120.037 117.774L144.496 93.3151V142.234L120.037 117.774ZM117.774 120.037L142.233 144.496H93.3147L117.774 120.037ZM115.511 117.774L91.0519 142.234V93.3151L115.511 117.774ZM150.167 91.0523L174.626 115.512L199.085 91.0523H150.167ZM201.348 93.3151L176.889 117.774L201.348 142.234V93.3151ZM199.085 144.496L174.626 120.037L150.167 144.496H199.085ZM147.904 142.234L172.363 117.774L147.904 93.3151V142.234ZM231.478 115.512L207.019 91.0523H255.937L231.478 115.512ZM233.741 117.774L258.2 93.3151V142.234L233.741 117.774ZM231.478 120.037L255.937 144.496H207.019L231.478 120.037ZM229.215 117.774L204.756 142.234V93.3151L229.215 117.774ZM36.4627 147.905L60.9221 172.364L85.3814 147.905H36.4627ZM87.6441 150.167L63.1848 174.627L87.6441 199.086V150.167ZM85.3814 201.349L60.9221 176.889L36.4627 201.349H85.3814ZM34.2 199.086L58.6593 174.627L34.2 150.167V199.086ZM117.774 172.364L93.3147 147.905H142.233L117.774 172.364ZM120.037 174.627L144.496 150.167V199.086L120.037 174.627ZM117.774 176.889L142.233 201.349H93.3147L117.774 176.889ZM115.511 174.627L91.0519 199.086V150.167L115.511 174.627ZM150.167 147.905L174.626 172.364L199.085 147.905H150.167ZM201.348 150.167L176.889 174.627L201.348 199.086V150.167ZM199.085 201.349L174.626 176.889L150.167 201.349H199.085ZM147.904 199.086L172.363 174.627L147.904 150.167V199.086ZM231.478 172.364L207.019 147.905H255.937L231.478 172.364ZM233.741 174.627L258.2 150.167V199.086L233.741 174.627ZM231.478 176.889L255.937 201.349H207.019L231.478 176.889ZM229.215 174.627L204.756 199.086V150.167L229.215 174.627ZM36.4627 204.755L60.9221 229.215L85.3814 204.755H36.4627ZM87.6441 207.018L63.1848 231.478L87.6441 255.937V207.018ZM85.3814 258.2L60.9221 233.74L36.4627 258.2H85.3814ZM34.2 255.937L58.6593 231.478L34.2 207.018V255.937ZM117.774 229.215L93.3147 204.755H142.233L117.774 229.215ZM120.037 231.478L144.496 207.018V255.937L120.037 231.478ZM117.774 233.74L142.233 258.2H93.3147L117.774 233.74ZM115.511 231.478L91.0519 255.937V207.018L115.511 231.478ZM150.167 204.755L174.626 229.215L199.085 204.755H150.167ZM201.348 207.018L176.889 231.478L201.348 255.937V207.018ZM199.085 258.2L174.626 233.74L150.167 258.2H199.085ZM147.904 255.937L172.363 231.478L147.904 207.018V255.937ZM231.478 229.215L207.019 204.755H255.937L231.478 229.215ZM233.741 231.478L258.2 207.018V255.937L233.741 231.478ZM231.478 233.74L255.937 258.2H207.019L231.478 233.74ZM229.215 231.478L204.756 255.937V207.018L229.215 231.478Z" fill="url(#paint0_radial_6302_12200)"/>
<defs>
<radialGradient id="paint0_radial_6302_12200" cx="0" cy="0" r="1" gradientUnits="userSpaceOnUse" gradientTransform="translate(146.2 146.2) rotate(45) scale(179.844)">
<stop stop-color="#620CD1"/>
<stop offset="0.425" stop-color="#9747FF"/>
<stop offset="1" stop-color="#F7931E" stop-opacity="0.1"/>
</radialGradient>
</defs>
</svg>
