<svg width="286" height="62" viewBox="0 0 286 62" fill="none" xmlns="http://www.w3.org/2000/svg">
<path d="M31.3693 4.82184e-06C29.3681 0.000882606 27.5304 1.10491 26.5898 2.87131C25.6492 4.63772 25.759 6.77877 26.8753 8.4397L29.1892 6.12906C29.1128 5.89856 29.0742 5.65719 29.075 5.41433C29.075 4.15262 30.0978 3.12981 31.3595 3.12981C32.6213 3.12981 33.6441 4.15262 33.6441 5.41433C33.6441 6.67604 32.6213 7.69886 31.3595 7.69886C31.1178 7.69939 30.8775 7.66082 30.6481 7.58463L28.3374 9.89526C30.2616 11.2003 32.8042 11.1312 34.6546 9.7235C36.5051 8.31582 37.2502 5.8839 36.506 3.68122C35.7618 1.47854 33.6943 -0.00308447 31.3693 4.82184e-06Z" fill="white"/>
<path d="M29.2154 15.7797C29.2189 13.9507 28.6266 12.1703 27.5281 10.708L24.5256 13.7073C25.4645 15.4247 25.1266 17.5594 23.7031 18.9029L25.3349 22.8911C27.7527 21.3339 29.2142 18.6555 29.2154 15.7797Z" fill="white"/>
<path d="M20.824 20.0842H20.7457C18.904 20.0844 17.2659 18.9138 16.6695 17.1714C16.0731 15.429 16.6502 13.5002 18.1057 12.3717C19.5611 11.2433 21.5729 11.1648 23.1118 12.1765L26.0849 9.20337C23.1939 6.85957 19.1112 6.67877 16.0243 8.75784C12.9374 10.8369 11.5704 14.6882 12.6557 18.2482C13.7409 21.8082 17.0239 24.2419 20.7457 24.2453C21.3199 24.2456 21.8928 24.1888 22.4558 24.0756L20.824 20.0842Z" fill="white"/>
<path d="M31.4831 23.5338C29.6039 23.5319 27.7346 23.8057 25.9349 24.3464L28.3141 30.1589C29.3497 29.9023 30.4128 29.7729 31.4798 29.7738C37.6623 29.7756 42.9826 34.1442 44.1874 40.2081C45.3921 46.2721 42.1458 52.3426 36.4336 54.7077C30.7214 57.0727 24.134 55.0735 20.6997 49.9326C17.2654 44.7918 17.9406 37.9409 22.3123 33.5694C23.2246 32.66 24.266 31.8902 25.403 31.2848L23.0499 25.4887C14.2788 29.7843 10.1259 39.9767 13.3974 49.179C16.6689 58.3814 26.3236 63.6651 35.8379 61.4602C45.3523 59.2552 51.6986 50.2632 50.5887 40.56C49.4788 30.8567 41.2659 23.53 31.4994 23.5305L31.4831 23.5338Z" fill="white"/>
<path d="M67.6543 20.0791H70.1113V42.1426H79.4912V44.5H67.6543V20.0791ZM91.5273 25.9727C94.3053 25.9727 96.6074 26.9798 98.4336 28.9941C100.094 30.8314 100.924 33.0062 100.924 35.5186C100.924 38.042 100.044 40.25 98.2842 42.1426C96.5355 44.0241 94.2832 44.9648 91.5273 44.9648C88.7604 44.9648 86.4971 44.0241 84.7373 42.1426C82.9886 40.25 82.1143 38.042 82.1143 35.5186C82.1143 33.0173 82.9443 30.848 84.6045 29.0107C86.4307 26.9854 88.7383 25.9727 91.5273 25.9727ZM91.5273 28.2471C89.6016 28.2471 87.9469 28.9609 86.5635 30.3887C85.18 31.8164 84.4883 33.543 84.4883 35.5684C84.4883 36.8743 84.8037 38.0918 85.4346 39.2207C86.0654 40.3496 86.9176 41.224 87.9912 41.8438C89.0648 42.4525 90.2435 42.7568 91.5273 42.7568C92.8112 42.7568 93.9899 42.4525 95.0635 41.8438C96.137 41.224 96.9893 40.3496 97.6201 39.2207C98.251 38.0918 98.5664 36.8743 98.5664 35.5684C98.5664 33.543 97.8691 31.8164 96.4746 30.3887C95.0911 28.9609 93.4421 28.2471 91.5273 28.2471ZM113.807 25.9727C116.585 25.9727 118.887 26.9798 120.713 28.9941C122.373 30.8314 123.203 33.0062 123.203 35.5186C123.203 38.042 122.323 40.25 120.563 42.1426C118.815 44.0241 116.562 44.9648 113.807 44.9648C111.04 44.9648 108.776 44.0241 107.017 42.1426C105.268 40.25 104.394 38.042 104.394 35.5186C104.394 33.0173 105.224 30.848 106.884 29.0107C108.71 26.9854 111.018 25.9727 113.807 25.9727ZM113.807 28.2471C111.881 28.2471 110.226 28.9609 108.843 30.3887C107.459 31.8164 106.768 33.543 106.768 35.5684C106.768 36.8743 107.083 38.0918 107.714 39.2207C108.345 40.3496 109.197 41.224 110.271 41.8438C111.344 42.4525 112.523 42.7568 113.807 42.7568C115.09 42.7568 116.269 42.4525 117.343 41.8438C118.416 41.224 119.269 40.3496 119.899 39.2207C120.53 38.0918 120.846 36.8743 120.846 35.5684C120.846 33.543 120.148 31.8164 118.754 30.3887C117.37 28.9609 115.721 28.2471 113.807 28.2471ZM127.52 19.4648H129.86V33.709L138.211 26.4375H141.631L131.72 35.0537L142.212 44.5H138.925L129.86 36.3818V44.5H127.52V19.4648ZM159.81 38.5068L161.769 39.5361C161.127 40.7979 160.385 41.8161 159.544 42.5908C158.703 43.3656 157.757 43.9577 156.705 44.3672C155.654 44.7656 154.464 44.9648 153.136 44.9648C150.192 44.9648 147.89 44.002 146.229 42.0762C144.569 40.1393 143.739 37.9535 143.739 35.5186C143.739 33.2275 144.442 31.1855 145.848 29.3926C147.63 27.1126 150.015 25.9727 153.003 25.9727C156.08 25.9727 158.537 27.1403 160.374 29.4756C161.68 31.1247 162.344 33.1833 162.366 35.6514H146.13C146.174 37.7542 146.844 39.4808 148.139 40.8311C149.434 42.1702 151.033 42.8398 152.937 42.8398C153.855 42.8398 154.746 42.6794 155.609 42.3584C156.484 42.0374 157.225 41.6113 157.834 41.0801C158.443 40.5488 159.101 39.6911 159.81 38.5068ZM159.81 33.6426C159.5 32.403 159.046 31.4124 158.448 30.6709C157.862 29.9294 157.081 29.3317 156.107 28.8779C155.133 28.4242 154.11 28.1973 153.036 28.1973C151.265 28.1973 149.743 28.7673 148.471 29.9072C147.541 30.7373 146.838 31.9824 146.362 33.6426H159.81ZM165.836 26.4375H168.21V29.0771C168.918 28.0368 169.665 27.262 170.451 26.7529C171.237 26.2327 172.056 25.9727 172.908 25.9727C173.55 25.9727 174.236 26.1774 174.967 26.5869L173.755 28.5459C173.268 28.3356 172.858 28.2305 172.526 28.2305C171.752 28.2305 171.005 28.5514 170.285 29.1934C169.566 29.8242 169.018 30.8092 168.642 32.1484C168.354 33.1777 168.21 35.2585 168.21 38.3906V44.5H165.836V26.4375ZM184.23 39.9512L186.306 38.7061C187.767 41.3955 189.454 42.7402 191.369 42.7402C192.188 42.7402 192.957 42.5521 193.677 42.1758C194.396 41.7884 194.944 41.2738 195.32 40.6318C195.697 39.9899 195.885 39.3092 195.885 38.5898C195.885 37.7708 195.608 36.9684 195.055 36.1826C194.291 35.098 192.896 33.792 190.871 32.2646C188.835 30.7262 187.567 29.6139 187.069 28.9277C186.206 27.7767 185.774 26.5316 185.774 25.1924C185.774 24.1299 186.029 23.1615 186.538 22.2871C187.047 21.4128 187.761 20.7266 188.68 20.2285C189.609 19.7194 190.617 19.4648 191.701 19.4648C192.852 19.4648 193.926 19.7526 194.922 20.3281C195.929 20.8926 196.992 21.9385 198.109 23.4658L196.117 24.9766C195.199 23.7591 194.413 22.9567 193.76 22.5693C193.118 22.182 192.415 21.9883 191.651 21.9883C190.666 21.9883 189.858 22.2871 189.228 22.8848C188.608 23.4824 188.298 24.2184 188.298 25.0928C188.298 25.624 188.409 26.1387 188.63 26.6367C188.851 27.1348 189.255 27.6771 189.842 28.2637C190.163 28.5736 191.214 29.387 192.996 30.7041C195.11 32.2646 196.56 33.6536 197.346 34.8711C198.132 36.0885 198.524 37.3115 198.524 38.54C198.524 40.3109 197.849 41.8493 196.499 43.1553C195.16 44.4613 193.527 45.1143 191.602 45.1143C190.118 45.1143 188.774 44.7214 187.567 43.9355C186.361 43.1387 185.249 41.8105 184.23 39.9512ZM205.331 19.7305H207.672V26.4375H211.357V28.4297H207.672V44.5H205.331V28.4297H202.16V26.4375H205.331V19.7305ZM214.528 26.4375H216.869V34.8711C216.869 36.9297 216.98 38.3464 217.201 39.1211C217.533 40.2279 218.164 41.1022 219.094 41.7441C220.035 42.3861 221.152 42.707 222.447 42.707C223.742 42.707 224.838 42.3971 225.734 41.7773C226.642 41.1465 227.267 40.3219 227.61 39.3037C227.843 38.6064 227.959 37.1289 227.959 34.8711V26.4375H230.333V35.3027C230.333 37.793 230.04 39.6689 229.453 40.9307C228.878 42.1924 228.003 43.1829 226.83 43.9023C225.668 44.6107 224.207 44.9648 222.447 44.9648C220.688 44.9648 219.215 44.6107 218.031 43.9023C216.858 43.1829 215.978 42.1868 215.392 40.9141C214.816 39.6302 214.528 37.7044 214.528 35.1367V26.4375ZM253.542 19.4648V44.5H251.251V41.3955C250.277 42.5798 249.181 43.4707 247.964 44.0684C246.757 44.666 245.435 44.9648 243.996 44.9648C241.439 44.9648 239.254 44.0407 237.438 42.1924C235.634 40.333 234.732 38.0752 234.732 35.4189C234.732 32.818 235.646 30.5934 237.472 28.7451C239.298 26.8968 241.495 25.9727 244.062 25.9727C245.546 25.9727 246.885 26.2881 248.08 26.9189C249.286 27.5498 250.343 28.4961 251.251 29.7578V19.4648H253.542ZM244.245 28.2139C242.95 28.2139 241.755 28.5348 240.659 29.1768C239.563 29.8076 238.689 30.6986 238.036 31.8496C237.394 33.0007 237.073 34.2181 237.073 35.502C237.073 36.7747 237.4 37.9922 238.053 39.1543C238.706 40.3164 239.58 41.224 240.676 41.877C241.783 42.5189 242.967 42.8398 244.229 42.8398C245.501 42.8398 246.708 42.5189 247.848 41.877C248.988 41.235 249.862 40.3662 250.471 39.2705C251.09 38.1748 251.4 36.9408 251.4 35.5684C251.4 33.4766 250.709 31.7279 249.325 30.3223C247.953 28.9167 246.259 28.2139 244.245 28.2139ZM259.635 19C260.166 19 260.62 19.1882 260.996 19.5645C261.372 19.9408 261.561 20.3945 261.561 20.9258C261.561 21.446 261.372 21.8942 260.996 22.2705C260.62 22.6468 260.166 22.835 259.635 22.835C259.115 22.835 258.666 22.6468 258.29 22.2705C257.914 21.8942 257.726 21.446 257.726 20.9258C257.726 20.3945 257.914 19.9408 258.29 19.5645C258.666 19.1882 259.115 19 259.635 19ZM258.473 26.4375H260.813V44.5H258.473V26.4375ZM274.178 25.9727C276.956 25.9727 279.258 26.9798 281.084 28.9941C282.744 30.8314 283.574 33.0062 283.574 35.5186C283.574 38.042 282.694 40.25 280.935 42.1426C279.186 44.0241 276.934 44.9648 274.178 44.9648C271.411 44.9648 269.147 44.0241 267.388 42.1426C265.639 40.25 264.765 38.042 264.765 35.5186C264.765 33.0173 265.595 30.848 267.255 29.0107C269.081 26.9854 271.389 25.9727 274.178 25.9727ZM274.178 28.2471C272.252 28.2471 270.597 28.9609 269.214 30.3887C267.83 31.8164 267.139 33.543 267.139 35.5684C267.139 36.8743 267.454 38.0918 268.085 39.2207C268.716 40.3496 269.568 41.224 270.642 41.8438C271.715 42.4525 272.894 42.7568 274.178 42.7568C275.462 42.7568 276.64 42.4525 277.714 41.8438C278.787 41.224 279.64 40.3496 280.271 39.2207C280.901 38.0918 281.217 36.8743 281.217 35.5684C281.217 33.543 280.52 31.8164 279.125 30.3887C277.742 28.9609 276.092 28.2471 274.178 28.2471Z" fill="white"/>
</svg>
