<svg width="157" height="52" viewBox="0 0 157 52" fill="none" xmlns="http://www.w3.org/2000/svg">
<g clip-path="url(#clip0_792_2900)">
<path d="M14.0617 23.0243C12.0967 21.9229 11.2234 21.0418 11.2234 19.9404C11.2234 18.3985 12.5334 17.5173 14.7168 17.5173C17.1184 17.5173 19.3018 18.6187 19.3018 18.6187L21.0485 13.332C21.0485 13.332 19.5201 12.0103 14.9351 12.0103C8.38496 12.0103 4.01822 15.7551 4.01822 21.0418C4.01822 24.1257 6.20159 26.3285 8.82163 27.8705C11.0051 29.1922 11.8784 30.0733 11.8784 31.395C11.8784 32.7166 10.7866 34.0383 8.60329 34.0383C5.54658 34.0383 2.48985 32.4964 2.48985 32.4964L0.743164 37.7831C0.743164 37.7831 3.36321 39.5453 7.94829 39.5453C14.4984 39.5453 19.3018 36.2411 19.3018 30.2936C19.3018 26.9894 16.9001 24.5663 14.0617 23.0243ZM40.4805 11.7901C37.2055 11.7901 34.5854 13.332 32.6204 15.7551L35.4587 0.776074H28.0353L20.8301 38.8845H28.2536L30.6553 25.888C31.5287 21.0418 34.1487 17.9579 36.5505 17.9579C38.2972 17.9579 38.9522 19.0593 38.9522 20.8215C38.9522 21.9229 38.9522 23.0243 38.7339 24.1257L35.8954 39.1047H43.3189L46.1572 23.6852C46.3756 22.1432 46.5939 20.1607 46.5939 18.839C46.5939 14.4334 44.4106 11.7901 40.4805 11.7901ZM59.4758 33.5978C56.8558 33.5978 55.9824 31.395 55.9824 28.7516C55.9824 24.5663 58.1658 17.5173 62.0959 17.5173C64.716 17.5173 65.5893 19.7201 65.5893 21.9229C65.5893 26.7691 63.4059 33.5978 59.4758 33.5978ZM63.1876 11.7901C54.2358 11.7901 48.3406 19.9404 48.3406 28.9719C48.3406 34.6992 51.8341 39.325 58.6025 39.325C67.336 39.325 73.231 31.395 73.231 22.1432C73.231 16.8565 70.1743 11.7901 63.1876 11.7901ZM85.0212 33.818C83.0562 33.818 81.9645 32.7166 81.9645 32.7166L83.2746 25.6677C84.1479 21.0418 86.5497 17.9579 89.1697 17.9579C91.3531 17.9579 92.2264 20.1607 92.2264 22.1432C92.0081 26.9894 89.1697 33.818 85.0212 33.818ZM92.2264 11.7901C87.2047 11.7901 84.3662 16.1957 84.3662 16.1957L84.8029 12.2306H78.2528C78.0345 14.874 77.3795 19.0593 76.7245 22.1432L71.4844 49.4579H78.9079L80.8729 38.4439H81.0912C81.0912 38.4439 82.6196 39.325 85.4579 39.325C94.1914 39.325 99.8687 30.2936 99.8687 21.2621C99.8687 16.4159 97.6848 11.7901 92.2264 11.7901ZM110.348 1.21663C107.947 1.21663 106.2 3.19915 106.2 5.62223C106.2 7.82502 107.51 9.36698 109.693 9.36698C112.095 9.36698 114.06 7.82502 114.06 4.96139C114.06 2.75859 112.531 1.21663 110.348 1.21663ZM100.086 38.8845H107.51L112.531 12.4509H105.108L100.086 38.8845ZM131.309 12.4509H126.069L126.287 11.1292C126.724 8.48586 128.252 6.28307 130.654 6.28307C131.964 6.28307 133.055 6.72363 133.055 6.72363L134.584 0.776074C134.584 0.776074 133.274 0.115234 130.654 0.115234C128.034 0.115234 125.414 0.776074 123.448 2.53831C120.829 4.74111 119.737 7.82502 119.081 10.9089L118.864 12.2306H115.37L114.278 17.9579H117.772L113.842 38.8845H121.265L125.195 17.9579H130.217L131.309 12.4509ZM148.995 12.4509C148.995 12.4509 144.409 24.1257 142.226 30.5138C142.007 28.5313 140.479 12.4509 140.479 12.4509H132.619L136.986 36.6817C136.986 37.1222 136.986 37.5628 136.767 38.0033C135.893 39.7656 134.366 41.3075 132.837 42.4089C131.527 43.5103 129.781 44.1712 128.688 44.6117L130.654 50.9998C132.183 50.7796 135.238 49.4579 137.859 47.0348C141.134 43.9509 144.409 38.8845 147.466 32.2761L156.417 12.6712L148.995 12.4509Z" fill="white"/>
</g>
<defs>
<clipPath id="clip0_792_2900">
<rect width="156" height="51" fill="white" transform="translate(0.5 0.5)"/>
</clipPath>
</defs>
</svg>
