<svg width="282" height="268" viewBox="0 0 282 268" fill="none" xmlns="http://www.w3.org/2000/svg">
<path d="M202.125 25.6684L146.968 123.799L91.8106 25.6685C83.0797 4.64344 88.2614 -12.8539 99.778 -21.5439C111.297 -30.236 129.347 -30.2613 146.649 -15.9278L146.968 -15.6636L147.287 -15.9278C164.589 -30.2613 182.638 -30.236 194.157 -21.5439C205.674 -12.854 210.856 4.64332 202.125 25.6684Z" stroke="url(#paint0_linear_6302_12185)"/>
<path d="M202.125 213.826L146.968 115.695L91.8106 213.826C83.0797 234.851 88.2614 252.348 99.778 261.038C111.297 269.73 129.347 269.755 146.649 255.422L146.968 255.158L147.287 255.422C164.589 269.755 182.638 269.73 194.157 261.038C205.674 252.348 210.856 234.851 202.125 213.826Z" stroke="url(#paint1_linear_6302_12185)"/>
<path d="M93.0748 24.9399L150.48 121.773L37.9178 120.475C15.3441 117.524 2.7818 104.287 1.01435 89.9687C-0.753529 75.6466 8.24929 60.0026 29.3134 52.1855L29.7017 52.0414L29.6324 51.6331C25.8701 29.4825 34.9167 13.8638 48.204 8.23374C61.4881 2.60502 79.232 6.86615 93.0748 24.9399Z" stroke="url(#paint2_linear_6302_12185)"/>
<path d="M256.027 119.019L143.464 117.721L200.869 214.553C214.712 232.627 232.456 236.888 245.74 231.26C259.028 225.63 268.074 210.011 264.312 187.86L264.243 187.452L264.631 187.308C285.695 179.491 294.698 163.847 292.93 149.525C291.163 135.206 278.6 121.97 256.027 119.019Z" stroke="url(#paint3_linear_6302_12185)"/>
<path d="M200.871 24.9402L143.465 121.773L256.028 120.475C278.601 117.524 291.164 104.288 292.931 89.969C294.699 75.6468 285.696 60.0028 264.632 52.1858L264.244 52.0417L264.313 51.6333C268.075 29.4827 259.029 13.8641 245.741 8.23398C232.457 2.60526 214.713 6.8664 200.871 24.9402Z" stroke="url(#paint4_linear_6302_12185)"/>
<path d="M37.9187 119.019L150.481 117.721L93.0759 214.554C79.2331 232.627 61.4892 236.889 48.2051 231.26C34.9178 225.63 25.8711 210.011 29.6334 187.861L29.7028 187.452L29.3144 187.308C8.25032 179.491 -0.752524 163.847 1.01532 149.525C2.78274 135.206 15.345 121.97 37.9187 119.019Z" stroke="url(#paint5_linear_6302_12185)"/>
<defs>
<linearGradient id="paint0_linear_6302_12185" x1="146.968" y1="-28" x2="146.968" y2="139.235" gradientUnits="userSpaceOnUse">
<stop stop-color="#9747FF"/>
<stop offset="1" stop-color="#3C3B3B"/>
</linearGradient>
<linearGradient id="paint1_linear_6302_12185" x1="146.968" y1="267.494" x2="146.968" y2="100.259" gradientUnits="userSpaceOnUse">
<stop stop-color="#9747FF"/>
<stop offset="1" stop-color="#3C3B3B"/>
</linearGradient>
<linearGradient id="paint2_linear_6302_12185" x1="19.018" y1="45.8732" x2="163.848" y2="129.491" gradientUnits="userSpaceOnUse">
<stop stop-color="#9747FF"/>
<stop offset="1" stop-color="#3C3B3B"/>
</linearGradient>
<linearGradient id="paint3_linear_6302_12185" x1="274.926" y1="193.62" x2="130.096" y2="110.003" gradientUnits="userSpaceOnUse">
<stop stop-color="#9747FF"/>
<stop offset="1" stop-color="#3C3B3B"/>
</linearGradient>
<linearGradient id="paint4_linear_6302_12185" x1="274.927" y1="45.8734" x2="130.097" y2="129.491" gradientUnits="userSpaceOnUse">
<stop stop-color="#9747FF"/>
<stop offset="1" stop-color="#3C3B3B"/>
</linearGradient>
<linearGradient id="paint5_linear_6302_12185" x1="19.0191" y1="193.62" x2="163.849" y2="110.003" gradientUnits="userSpaceOnUse">
<stop stop-color="#9747FF"/>
<stop offset="1" stop-color="#3C3B3B"/>
</linearGradient>
</defs>
</svg>
